<?xml version="1.0" encoding="UTF-8"?>
<svg id="Layer_1" data-name="Layer 1" xmlns="http://www.w3.org/2000/svg" viewBox="0 0 70 70">
  <defs>
    <style>
      .cls-1 {
        opacity: .5;
      }

      .cls-1, .cls-2, .cls-3 {
        fill: #fff;
      }

      .cls-2 {
        opacity: .75;
      }

      .cls-4 {
        fill: #0e69a1;
      }
    </style>
  </defs>
  <path class="cls-4" d="M8.24,0h45.29v61.76c0,4.55-3.69,8.24-8.24,8.24H0V8.24C0,3.69,3.69,0,8.24,0Z"/>
  <g>
    <rect class="cls-3" x="37.06" y="11.52" width="32.94" height="32.94" rx="4.12" ry="4.12"/>
    <path class="cls-4" d="M65.88,12.35c1.82,0,3.29,1.48,3.29,3.29v24.71c0,1.82-1.48,3.29-3.29,3.29h-24.71c-1.82,0-3.29-1.48-3.29-3.29V15.64c0-1.82,1.48-3.29,3.29-3.29h24.71M65.88,11.52h-24.71c-2.27,0-4.12,1.84-4.12,4.12v24.71c0,2.27,1.84,4.12,4.12,4.12h24.71c2.27,0,4.12-1.84,4.12-4.12V15.64c0-2.27-1.84-4.12-4.12-4.12h0Z"/>
  </g>
  <rect class="cls-3" x="12.35" y="12.35" width="4.12" height="4.12"/>
  <rect class="cls-2" x="20.59" y="12.35" width="4.12" height="4.12"/>
  <rect class="cls-1" x="28.82" y="12.35" width="4.12" height="4.12"/>
  <path class="cls-3" d="M12.35,57.21v-19.64c0-2.26,1.66-3.58,3.52-3.58,1.49,0,2.67.54,3.41,1.79l8.99,15.42v-16.73h4.67v19.64c0,2.26-1.66,3.55-3.45,3.55-1.45,0-2.7-.51-3.45-1.76l-8.99-15.52v16.84h-4.7Z"/>
  <path class="cls-4" d="M55.18,27.17h7.25c.52,0,.91-.47.81-.98-.74-4.01-3.9-7.16-7.9-7.9-.51-.09-.98.3-.98.81v7.25c0,.45.37.82.82.82Z"/>
  <path class="cls-4" d="M54.35,28.82h-.82c-.45,0-.82-.37-.82-.82v-8.9c0-.52-.47-.91-.98-.81-5.01.92-8.7,5.62-7.99,11.05.57,4.36,4.1,7.89,8.46,8.46,5.42.71,10.12-2.98,11.05-7.99.09-.51-.3-.98-.81-.98h-8.07Z"/>
</svg>