<?xml version="1.0" encoding="UTF-8"?>
<svg id="Layer_1" data-name="Layer 1" xmlns="http://www.w3.org/2000/svg" viewBox="0 0 70 70">
  <defs>
    <style>
      .cls-1 {
        fill: #51b2cf;
      }

      .cls-2 {
        opacity: .5;
      }

      .cls-2, .cls-3, .cls-4 {
        fill: #fff;
      }

      .cls-3 {
        opacity: .75;
      }
    </style>
  </defs>
  <path class="cls-1" d="M8.24,0h45.29v61.76c0,4.55-3.69,8.24-8.24,8.24H0V8.24C0,3.69,3.69,0,8.24,0Z"/>
  <g>
    <rect class="cls-4" x="37.06" y="11.52" width="32.94" height="32.94" rx="4.12" ry="4.12"/>
    <path class="cls-1" d="M65.88,12.35c1.82,0,3.29,1.48,3.29,3.29v24.71c0,1.82-1.48,3.29-3.29,3.29h-24.71c-1.82,0-3.29-1.48-3.29-3.29V15.64c0-1.82,1.48-3.29,3.29-3.29h24.71M65.88,11.52h-24.71c-2.27,0-4.12,1.84-4.12,4.12v24.71c0,2.27,1.84,4.12,4.12,4.12h24.71c2.27,0,4.12-1.84,4.12-4.12V15.64c0-2.27-1.84-4.12-4.12-4.12h0Z"/>
  </g>
  <rect class="cls-4" x="12.35" y="12.35" width="4.12" height="4.12"/>
  <rect class="cls-3" x="20.59" y="12.35" width="4.12" height="4.12"/>
  <rect class="cls-2" x="28.82" y="12.35" width="4.12" height="4.12"/>
  <g>
    <path class="cls-1" d="M58.47,25.19h-1.04c-1.03.94-2.39,1.52-3.9,1.52s-2.87-.58-3.9-1.52h-1.04c-2.27,0-4.12,1.83-4.12,4.1v9.83h3.29v-7.36c0-.45.37-.82.82-.82s.82.37.82.82v7.36h8.24v-7.36c0-.45.37-.82.82-.82s.82.37.82.82v7.36h3.29v-9.83c0-2.26-1.84-4.1-4.12-4.1Z"/>
    <ellipse class="cls-1" cx="53.53" cy="20.97" rx="4.12" ry="4.1"/>
  </g>
  <path class="cls-4" d="M12.35,57.21v-19.64c0-2.26,1.66-3.58,3.52-3.58,1.49,0,2.67.54,3.41,1.79l8.99,15.42v-16.73h4.67v19.64c0,2.26-1.66,3.55-3.45,3.55-1.45,0-2.7-.51-3.45-1.76l-8.99-15.52v16.84h-4.7Z"/>
  <g>
    <path class="cls-1" d="M64.65,30.99c-.32-.32-.84-.32-1.16,0l-7.21,7.21-2.79-2.79c-.32-.32-.84-.32-1.16,0s-.32.84,0,1.16l3.37,3.37c.16.16.37.24.58.24s.42-.08.58-.24l7.79-7.79c.32-.32.32-.84,0-1.16Z"/>
    <path class="cls-4" d="M64.07,30.75c.21,0,.42.08.58.24.32.32.32.84,0,1.16l-7.79,7.79c-.16.16-.37.24-.58.24s-.42-.08-.58-.24l-3.37-3.37c-.32-.32-.32-.84,0-1.16.16-.16.37-.24.58-.24s.42.08.58.24l2.79,2.79,7.21-7.21c.16-.16.37-.24.58-.24M64.07,29.1c-.66,0-1.28.26-1.75.72l-6.04,6.04-1.63-1.63c-.47-.47-1.09-.72-1.75-.72s-1.28.26-1.75.72-.72,1.09-.72,1.75.26,1.28.72,1.75l3.37,3.37c.47.47,1.09.72,1.75.72s1.28-.26,1.75-.72l7.79-7.79c.96-.96.96-2.53,0-3.49-.47-.47-1.09-.72-1.75-.72h0Z"/>
  </g>
</svg>