<?xml version="1.0" encoding="UTF-8"?>
<svg id="Layer_1" data-name="Layer 1" xmlns="http://www.w3.org/2000/svg" viewBox="0 0 70 70">
  <defs>
    <style>
      .cls-1 {
        fill: #520021;
      }

      .cls-2 {
        opacity: .5;
      }

      .cls-2, .cls-3, .cls-4 {
        fill: #fff;
      }

      .cls-3 {
        opacity: .75;
      }
    </style>
  </defs>
  <g>
    <path class="cls-1" d="M8.24,0h45.29v61.76c0,4.55-3.69,8.24-8.24,8.24H0V8.24C0,3.69,3.69,0,8.24,0Z"/>
    <g>
      <rect class="cls-4" x="37.4" y="11.86" width="32.27" height="32.27" rx="4.03" ry="4.03"/>
      <path class="cls-1" d="M65.88,12.35c1.82,0,3.29,1.48,3.29,3.29v24.71c0,1.82-1.48,3.29-3.29,3.29h-24.71c-1.82,0-3.29-1.48-3.29-3.29V15.64c0-1.82,1.48-3.29,3.29-3.29h24.71M65.88,11.52h-24.71c-2.27,0-4.12,1.84-4.12,4.12v24.71c0,2.27,1.84,4.12,4.12,4.12h24.71c2.27,0,4.12-1.84,4.12-4.12V15.64c0-2.27-1.84-4.12-4.12-4.12h0Z"/>
    </g>
    <rect class="cls-4" x="12.35" y="12.35" width="4.12" height="4.12"/>
    <rect class="cls-3" x="20.59" y="12.35" width="4.12" height="4.12"/>
    <rect class="cls-2" x="28.82" y="12.35" width="4.12" height="4.12"/>
    <path class="cls-4" d="M12.35,57.21v-19.64c0-2.26,1.66-3.58,3.52-3.58,1.49,0,2.67.54,3.41,1.79l8.99,15.42v-16.73h4.67v19.64c0,2.26-1.66,3.55-3.45,3.55-1.45,0-2.7-.51-3.45-1.76l-8.99-15.52v16.84h-4.7Z"/>
  </g>
  <g>
    <path class="cls-1" d="M64.35,24.6l-10.47-5.6c-.23-.12-.5-.12-.73,0l-10.47,5.6c-.54.29-.54,1.07,0,1.36l10.47,5.6c.23.12.5.12.73,0l4.58-2.45v3.63s0,.04,0,.07c0,0,0,.01,0,.02,0,.01,0,.03,0,.04,0,0,0,.01,0,.02,0,.01,0,.02,0,.04,0,0,0,.01,0,.02,0,.01,0,.02.01.04,0,0,0,.01,0,.02,0,.01.01.03.02.04,0,0,0,0,0,.01,0,.02.02.03.03.05,0,0,0,0,0,0,0,.01.02.02.03.03,0,0,0,0,.01.01,0,0,.02.02.02.02,0,0,.01,0,.02.01,0,0,.02.01.03.02,0,0,.01,0,.02.01,0,0,.02.01.03.02,0,0,.01,0,.02,0,.01,0,.03.01.04.02,0,0,0,0,0,0,.02,0,.03.01.05.02,0,0,.01,0,.02,0,.01,0,.02,0,.04.01,0,0,.01,0,.02,0,.01,0,.02,0,.03,0,0,0,.01,0,.02,0,.01,0,.02,0,.03,0,0,0,.01,0,.02,0,.01,0,.03,0,.04,0,0,0,0,0,.01,0,0,0,0,0,0,0,.02,0,.05,0,.07,0,0,0,0,0,.01,0,.02,0,.05,0,.07-.01,0,0,0,0,0,0,.02,0,.04-.01.06-.02,0,0,0,0,.01,0,.02,0,.04-.02.06-.03,0,0,0,0,.01,0,.02-.01.04-.03.06-.04,0,0,0,0,0,0,.02-.02.04-.03.05-.05,0,0,0,0,0-.01.02-.02.03-.04.05-.06,0,0,0,0,0-.01.02-.02.03-.05.04-.08l.76-1.64.76,1.64c.27.59,1.15.39,1.15-.26v-5.68l2.06-1.1c.54-.29.54-1.07,0-1.36Z"/>
    <path class="cls-1" d="M59.08,34.51c-.99,0-1.77-.78-1.77-1.77v-1.69l-2.87,1.54c-.28.15-.6.23-.91.23s-.63-.08-.91-.23l-5.95-3.18v4.67c0,1.91,3.07,3.01,6.86,3.01s6.86-1.11,6.86-3.01v-.15c-.33.37-.79.58-1.3.58Z"/>
  </g>
</svg>