<?xml version="1.0" encoding="UTF-8"?>
<svg id="Layer_1" data-name="Layer 1" xmlns="http://www.w3.org/2000/svg" viewBox="0 0 70 70">
  <defs>
    <style>
      .cls-1 {
        opacity: .5;
      }

      .cls-1, .cls-2, .cls-3 {
        fill: #fff;
      }

      .cls-2 {
        opacity: .75;
      }

      .cls-4 {
        fill: #65a36f;
      }
    </style>
  </defs>
  <path class="cls-4" d="M45.29,70H0V8.24C0,3.69,3.69,0,8.24,0h45.29v61.76c0,4.55-3.69,8.24-8.24,8.24Z"/>
  <g>
    <rect class="cls-3" x="37.06" y="11.52" width="32.94" height="32.94" rx="4.12" ry="4.12"/>
    <path class="cls-4" d="M65.88,12.35c1.82,0,3.29,1.48,3.29,3.29v24.71c0,1.82-1.48,3.29-3.29,3.29h-24.71c-1.82,0-3.29-1.48-3.29-3.29V15.64c0-1.82,1.48-3.29,3.29-3.29h24.71M65.88,11.52h-24.71c-2.27,0-4.12,1.84-4.12,4.12v24.71c0,2.27,1.84,4.12,4.12,4.12h24.71c2.27,0,4.12-1.84,4.12-4.12V15.64c0-2.27-1.84-4.12-4.12-4.12h0Z"/>
  </g>
  <rect class="cls-3" x="12.35" y="12.35" width="4.12" height="4.12"/>
  <rect class="cls-2" x="20.59" y="12.35" width="4.12" height="4.12"/>
  <rect class="cls-1" x="28.82" y="12.35" width="4.12" height="4.12"/>
  <g>
    <rect class="cls-3" x="47.76" y="21.41" width="11.53" height="13.18"/>
    <path class="cls-4" d="M58.47,22.23v11.53h-9.88v-11.53h9.88M59.29,21.41h-11.53v13.18h11.53v-13.18h0Z"/>
  </g>
  <path class="cls-3" d="M12.35,57.21v-19.64c0-2.26,1.66-3.58,3.52-3.58,1.49,0,2.67.54,3.41,1.79l8.99,15.42v-16.73h4.67v19.64c0,2.26-1.66,3.55-3.45,3.55-1.45,0-2.7-.51-3.45-1.76l-8.99-15.52v16.84h-4.7Z"/>
  <g>
    <path class="cls-4" d="M57.65,19.76h1.65c1.36,0,2.47,1.11,2.47,2.47v1.65c0,.45.37.82.82.82h0c.45,0,.82-.37.82-.82v-1.65c0-2.27-1.84-4.12-4.12-4.12h-1.65c-.45,0-.82.37-.82.82h0c0,.45.37.82.82.82Z"/>
    <path class="cls-4" d="M45.29,23.88v-1.65c0-1.36,1.11-2.47,2.47-2.47h1.65c.45,0,.82-.37.82-.82h0c0-.45-.37-.82-.82-.82h-1.65c-2.27,0-4.12,1.84-4.12,4.12v1.65c0,.45.37.82.82.82h0c.45,0,.82-.37.82-.82Z"/>
    <path class="cls-4" d="M61.76,32.11v1.65c0,1.36-1.11,2.47-2.47,2.47h-1.65c-.45,0-.82.37-.82.82h0c0,.45.37.82.82.82h1.65c2.27,0,4.12-1.84,4.12-4.12v-1.65c0-.45-.37-.82-.82-.82h0c-.45,0-.82.37-.82.82Z"/>
    <path class="cls-4" d="M49.41,36.23h-1.65c-1.36,0-2.47-1.11-2.47-2.47v-1.65c0-.45-.37-.82-.82-.82h0c-.45,0-.82.37-.82.82v1.65c0,2.27,1.84,4.12,4.12,4.12h1.65c.45,0,.82-.37.82-.82h0c0-.45-.37-.82-.82-.82Z"/>
  </g>
  <rect class="cls-4" x="43.65" y="27.17" width="19.76" height="1.65" rx=".82" ry=".82"/>
</svg>