<?xml version="1.0" encoding="UTF-8"?>
<svg id="Layer_1" data-name="Layer 1" xmlns="http://www.w3.org/2000/svg" viewBox="0 0 70 70">
  <defs>
    <style>
      .cls-1 {
        opacity: .5;
      }

      .cls-1, .cls-2, .cls-3 {
        fill: #fff;
      }

      .cls-2 {
        opacity: .75;
      }

      .cls-4 {
        fill: #00acc1;
      }
    </style>
  </defs>
  <path class="cls-4" d="M8.24,0h45.29v61.76c0,4.55-3.69,8.24-8.24,8.24H0V8.24C0,3.69,3.69,0,8.24,0Z"/>
  <g>
    <rect class="cls-3" x="37.06" y="11.52" width="32.94" height="32.94" rx="4.12" ry="4.12"/>
    <path class="cls-4" d="M65.88,12.35c1.82,0,3.29,1.48,3.29,3.29v24.71c0,1.82-1.48,3.29-3.29,3.29h-24.71c-1.82,0-3.29-1.48-3.29-3.29V15.64c0-1.82,1.48-3.29,3.29-3.29h24.71M65.88,11.52h-24.71c-2.27,0-4.12,1.84-4.12,4.12v24.71c0,2.27,1.84,4.12,4.12,4.12h24.71c2.27,0,4.12-1.84,4.12-4.12V15.64c0-2.27-1.84-4.12-4.12-4.12h0Z"/>
  </g>
  <rect class="cls-3" x="12.35" y="12.35" width="4.12" height="4.12"/>
  <rect class="cls-2" x="20.59" y="12.35" width="4.12" height="4.12"/>
  <rect class="cls-1" x="28.82" y="12.35" width="4.12" height="4.12"/>
  <rect class="cls-4" x="46.94" y="18.11" width="13.18" height="19.76" rx="1.65" ry="1.65"/>
  <rect class="cls-3" x="48.59" y="20.58" width="9.88" height="12.35"/>
  <circle class="cls-3" cx="53.53" cy="35.41" r="1.24"/>
  <rect class="cls-3" x="50.24" y="18.94" width="6.59" height=".82" rx=".41" ry=".41"/>
  <path class="cls-3" d="M12.35,57.21v-19.64c0-2.26,1.66-3.58,3.52-3.58,1.49,0,2.67.54,3.41,1.79l8.99,15.42v-16.73h4.67v19.64c0,2.26-1.66,3.55-3.45,3.55-1.45,0-2.7-.51-3.45-1.76l-8.99-15.52v16.84h-4.7Z"/>
</svg>