<?xml version="1.0" encoding="UTF-8"?>
<svg id="Layer_1" data-name="Layer 1" xmlns="http://www.w3.org/2000/svg" viewBox="0 0 70 70">
  <defs>
    <style>
      .cls-1 {
        opacity: .5;
      }

      .cls-1, .cls-2, .cls-3 {
        fill: #fff;
      }

      .cls-2 {
        opacity: .75;
      }

      .cls-4 {
        fill: #9a8ec0;
      }
    </style>
  </defs>
  <g>
    <path class="cls-4" d="M8.24,0h45.29v61.76c0,4.55-3.69,8.24-8.24,8.24H0V8.24C0,3.69,3.69,0,8.24,0Z"/>
    <g>
      <rect class="cls-3" x="37.06" y="11.52" width="32.94" height="32.94" rx="4.12" ry="4.12"/>
      <path class="cls-4" d="M65.88,12.35c1.82,0,3.29,1.48,3.29,3.29v24.71c0,1.82-1.48,3.29-3.29,3.29h-24.71c-1.82,0-3.29-1.48-3.29-3.29V15.64c0-1.82,1.48-3.29,3.29-3.29h24.71M65.88,11.52h-24.71c-2.27,0-4.12,1.84-4.12,4.12v24.71c0,2.27,1.84,4.12,4.12,4.12h24.71c2.27,0,4.12-1.84,4.12-4.12V15.64c0-2.27-1.84-4.12-4.12-4.12h0Z"/>
    </g>
    <rect class="cls-3" x="12.35" y="12.35" width="4.12" height="4.12"/>
    <rect class="cls-2" x="20.59" y="12.35" width="4.12" height="4.12"/>
    <rect class="cls-1" x="28.82" y="12.35" width="4.12" height="4.12"/>
    <path class="cls-3" d="M12.35,57.21v-19.64c0-2.26,1.66-3.58,3.52-3.58,1.49,0,2.67.54,3.41,1.79l8.99,15.42v-16.73h4.67v19.64c0,2.26-1.66,3.55-3.45,3.55-1.45,0-2.7-.51-3.45-1.76l-8.99-15.52v16.84h-4.7Z"/>
  </g>
  <path class="cls-4" d="M67.99,22.17v-.07s-.18-.35-.18-.35c-.02-.02-.04-.04-.06-.06l-3.05-3.05c-.33-.33-.86-.33-1.19,0-.16.16-.25.37-.25.6s.09.44.25.6l1.61,1.62h-7.14c-3.9,0-7.32,2.47-8.56,6.16h-2.38c-.47,0-.84.38-.84.84s.38.84.84.84h2c-.05.38-.08.78-.08,1.17s.03.78.08,1.17h-2c-.47,0-.84.38-.84.84s.38.84.84.84h2.38c.6,1.8,1.76,3.36,3.31,4.47h-6.43c-1.38,0-2.5-1.12-2.5-2.5v-12.15h6.48c.46,0,.84-.38.84-.84s-.38-.84-.84-.84h-6.48v-.63c0-1.38,1.12-2.5,2.5-2.5h.19v1.39c0,.47.38.84.84.84s.84-.38.84-.84v-1.39h10.72v1.51c0,.47.38.84.84.84s.84-.38.84-.84v-1.51h1.34c.47,0,.84-.38.84-.84s-.38-.84-.84-.84h-1.34v-1.51c0-.46-.38-.84-.84-.84s-.84.38-.84.84v1.51h-10.72v-1.39c0-.47-.38-.84-.84-.84s-.84.38-.84.84v1.39h-.19c-2.31,0-4.18,1.88-4.18,4.18v14.46c0,2.31,1.88,4.18,4.18,4.18h11.68s.05,0,.08,0c.02,0,.05,0,.08-.01.03,0,.06-.01.08-.02.03,0,.05-.02.08-.03,0,0,.01,0,.02-.01h.04s.04-.04.04-.04c.01,0,.03-.02.05-.03.02-.01.04-.03.06-.05.02-.02.05-.04.06-.06l6.13-6.15s.05-.06.09-.11c.02-.02.03-.04.04-.07l.02-.03s.03-.06.05-.12c.01-.04.02-.07.03-.11s.01-.07.01-.1v-4.08c0-.47-.37-.84-.84-.84s-.84.38-.84.84v3.18h-5.28c-.47,0-.84.38-.84.84v5.26c-2.61-.3-4.88-2-5.91-4.42h2.31c.47,0,.84-.38.84-.84s-.38-.84-.84-.84h-2.79c-.06-.39-.09-.78-.09-1.17s.03-.78.09-1.17h2.79c.47,0,.84-.38.84-.84s-.38-.84-.84-.84h-2.31c1.14-2.69,3.82-4.47,6.75-4.47h7.14l-1.61,1.62c-.16.16-.25.37-.25.6s.09.44.25.6c.32.32.87.32,1.19,0l3.05-3.05s.04-.04.05-.06c0-.01.02-.03.02-.03h0s.05-.07.05-.07l.13-.37c0-.05,0-.11,0-.2ZM58.82,36.56v-3.25h3.25l-3.25,3.25ZM67.69,21.93h0,0ZM58.43,39.08h0,0ZM67.69,22.65h0,0ZM67.74,22.55h0,0ZM67.79,22.38h0,0Z"/>
</svg>