<?xml version="1.0" encoding="UTF-8"?>
<svg id="Layer_1" xmlns="http://www.w3.org/2000/svg" version="1.1" viewBox="0 0 173 49">
  <!-- Generator: Adobe Illustrator 30.4.0, SVG Export Plug-In . SVG Version: 2.1.4 Build 226)  -->
  <defs>
    <style>
      .st0 {
        fill: #fff;
      }
    </style>
  </defs>
  <path class="st0" d="M24.7,41.3c-.8-.8-1.9-1.3-3.1-1.3s-2.3.5-3.1,1.3l-9.9-5.7c0,0,0-.1,0-.2h25.9c0,0,0,.1,0,.2l-9.9,5.7ZM18.5,7.7s0,0,.1.1L5.7,30.3c0,0-.1,0-.2,0v-11.4c1.9-.5,3.3-2.1,3.3-4.1s0-.8-.2-1.2l9.9-5.7ZM34.5,33.3H8.7c-.2-.8-.6-1.5-1.2-2.1l12.9-22.4c.4.1.8.2,1.2.2s.8,0,1.2-.2l12.9,22.4c-.6.6-1,1.3-1.2,2.1M34.6,13.4c-.1.4-.2.8-.2,1.2,0,2,1.4,3.7,3.3,4.1v11.4c0,0-.1,0-.2,0L24.6,7.9s0,0,.1-.1l9.9,5.7ZM43,14.6c0-2.4-1.9-4.3-4.3-4.3s-2.3.5-3.1,1.3l-9.9-5.7c.1-.4.2-.8.2-1.2,0-2.4-1.9-4.3-4.3-4.3s-4.3,1.9-4.3,4.3,0,.8.2,1.2l-9.9,5.7c-.8-.8-1.9-1.3-3.1-1.3-2.4,0-4.3,1.9-4.3,4.3s1.4,3.7,3.3,4.2v11.4c-1.9.5-3.3,2.1-3.3,4.2s1.9,4.3,4.3,4.3,2.3-.5,3.1-1.3l9.9,5.7c-.1.4-.2.8-.2,1.2,0,2.4,1.9,4.3,4.3,4.3s4.3-1.9,4.3-4.3,0-.8-.2-1.2l9.9-5.7c.8.8,1.9,1.3,3.1,1.3,2.4,0,4.3-1.9,4.3-4.3s-1.4-3.7-3.3-4.2v-11.4c1.9-.5,3.3-2.1,3.3-4.1"/>
  <path class="st0" d="M72.2,23.4h-6.5c-.2,0-.4,0-.5.2-.1.1-.2.3-.2.5v.4c0,.2,0,.4.2.5.1.1.3.2.5.2h5.3v1.5c0,2.1-.6,3.7-1.7,4.8-1.2,1.1-2.7,1.6-4.5,1.6s-3.4-.5-4.5-1.5c-1.1-1-1.6-2.6-1.7-4.8,0-.6,0-1.5,0-2.7s0-2.1,0-2.7c0-2.2.7-3.8,1.7-4.8,1.1-1,2.6-1.5,4.5-1.5s3,.4,3.9,1.1c1,.7,1.7,1.6,2,2.7,0,.2.2.4.2.5,0,0,.2.1.4.1h.7c.2,0,.3,0,.5-.2.1-.1.2-.2.2-.4h0c0-.7-.4-1.5-.9-2.4-.6-.9-1.4-1.7-2.6-2.3-1.2-.6-2.6-1-4.3-1-2.5,0-4.5.7-5.9,2.2-1.4,1.5-2.1,3.4-2.2,5.8,0,.6,0,1.6,0,2.9s0,2.3,0,2.9c0,2.4.8,4.4,2.2,5.8,1.4,1.5,3.4,2.2,5.9,2.2s3.2-.3,4.4-1c1.2-.7,2.2-1.6,2.8-2.9.6-1.2,1-2.7,1-4.3v-2.7c0-.2,0-.4-.2-.5-.1-.1-.3-.2-.5-.2"/>
  <path class="st0" d="M84.3,18.9h-1.1c-2,0-3.4.7-4.1,2.1v-1.4c0-.2,0-.4-.2-.5-.1-.1-.3-.2-.5-.2h-.5c-.2,0-.4,0-.5.2-.1.1-.2.3-.2.5v14.4c0,.2,0,.4.2.5.1.1.3.2.5.2h.5c.2,0,.4,0,.5-.2.1-.1.2-.3.2-.5v-9.4c0-1.2.4-2.2,1.1-2.9.7-.7,1.7-1.1,2.9-1.1h1.3c.2,0,.4,0,.5-.2s.2-.3.2-.5v-.4c0-.2,0-.4-.2-.5-.1-.1-.3-.2-.5-.2"/>
  <path class="st0" d="M97.1,27.6c0,1.8-.5,3.2-1.4,4.2-.9,1-2.2,1.5-3.6,1.5s-1.9-.3-2.7-.8c-.8-.5-1.2-1.2-1.2-2.2s.4-1.5,1.3-2.1c.8-.5,2.1-.9,3.8-1.2l3.9-.5v1ZM92.9,18.6c-1.2,0-2.3.2-3.1.7-.8.4-1.5,1-1.9,1.6-.4.6-.6,1.1-.6,1.5s0,.3.2.5c.1.1.3.2.5.2h.4c.2,0,.3,0,.4-.1.1-.1.2-.3.3-.5.2-.6.6-1.1,1.2-1.5.7-.4,1.5-.6,2.5-.6s2.4.3,3.1.9c.7.6,1,1.4,1,2.5v1.1l-4.8.7c-1.8.2-3.3.8-4.4,1.6-1.1.8-1.6,1.9-1.6,3.3s.2,1.6.7,2.3c.5.7,1.2,1.2,2,1.6.8.4,1.7.6,2.7.6,1.4,0,2.5-.2,3.4-.7.9-.5,1.5-1,2-1.7v1.4c0,.2,0,.4.2.5.1.1.3.2.5.2h.5c.2,0,.4,0,.5-.2.1-.1.2-.3.2-.5v-10.1c0-1.5-.5-2.7-1.4-3.8-.9-1-2.4-1.5-4.6-1.5"/>
  <path class="st0" d="M115.3,27.7c0,1.6-.5,3-1.2,4-.7,1-1.9,1.5-3.6,1.5s-2-.3-2.7-.8c-.7-.5-1.3-1.1-1.6-1.9-.4-.8-.6-1.6-.6-2.5v-1.2s0-1.2,0-1.2c0-1.4.5-2.7,1.3-3.7.8-1.1,2-1.6,3.6-1.6s3,.6,3.8,1.8c.7,1.2,1.1,2.7,1.1,4.6s0,.6,0,.8M115.5,20.7c-1-1.4-2.6-2.1-4.8-2.1s-3.9.8-5.1,2.4v-1.4c0-.2,0-.4-.2-.5-.1-.1-.3-.2-.5-.2h-.5c-.2,0-.4,0-.5.2-.1.1-.2.3-.2.5v20.2c0,.2,0,.4.2.5.1.1.3.2.5.2h.5c.2,0,.4,0,.5-.2.1-.1.2-.3.2-.5v-7.2c1.2,1.6,2.9,2.4,5.1,2.4s3.8-.7,4.8-2.1c1.1-1.4,1.6-3.1,1.7-5.1,0-.2,0-.5,0-1s0-.8,0-1c0-2-.6-3.7-1.7-5.1"/>
  <path class="st0" d="M128.3,18.6c-1.2,0-2.2.2-3,.6-.8.4-1.5,1-2.1,1.8v-7.2c0-.2,0-.4-.2-.5-.1-.1-.3-.2-.5-.2h-.5c-.2,0-.4,0-.5.2-.1.1-.2.3-.2.5v20.2c0,.2,0,.4.2.5.1.1.3.2.5.2h.5c.2,0,.4,0,.5-.2.1-.1.2-.3.2-.5v-8.5c0-1.6.4-2.9,1.3-3.8.9-.9,2-1.4,3.5-1.4s2.6.5,3.4,1.4c.8.9,1.2,2.2,1.2,3.8v8.5c0,.2,0,.4.2.5.1.1.3.2.5.2h.5c.2,0,.4,0,.5-.2.1-.1.2-.3.2-.5v-8.6c0-2-.5-3.6-1.6-4.9-1.1-1.3-2.6-1.9-4.6-1.9"/>
  <path class="st0" d="M152.9,26.5c0,2.3-.7,4-1.8,5.1-1.1,1.1-2.5,1.6-4.3,1.6s-3.3-.5-4.4-1.6c-1.1-1.1-1.6-2.8-1.7-5.1,0-.6,0-1.4,0-2.4s0-1.8,0-2.4c0-2.3.7-3.9,1.8-5,1.1-1.1,2.5-1.7,4.3-1.7s3.2.6,4.3,1.7c1.1,1.1,1.7,2.8,1.8,5,0,1.2,0,2,0,2.4s0,1.2,0,2.4M152.6,15.3c-1.4-1.4-3.3-2.1-5.8-2.1s-4.3.7-5.8,2.1c-1.4,1.4-2.2,3.5-2.2,6.2,0,.6,0,1.5,0,2.5s0,1.9,0,2.5c.1,5.6,2.8,8.4,8,8.4s3-.3,4.2-.9l1.3,1.8c.3.5.7.7,1,.7h.7c.2,0,.3,0,.4-.2.1-.1.2-.3.2-.4s0-.2,0-.3l-1.9-2.7c1.4-1.4,2.1-3.5,2.2-6.4,0-1.2,0-2.1,0-2.5s0-1.3,0-2.5c0-2.7-.8-4.8-2.2-6.2"/>
  <path class="st0" d="M172.6,33c-.1-.1-.3-.2-.5-.2h-10.5V14.1c0-.2,0-.4-.2-.5-.1-.1-.3-.2-.5-.2h-.6c-.2,0-.4,0-.5.2-.1.1-.2.3-.2.5v19.9c0,.2,0,.4.2.5.1.1.3.2.5.2h11.7c.2,0,.4,0,.5-.2.1-.1.2-.3.2-.5v-.5c0-.2,0-.4-.2-.5"/>
</svg>