<?xml version="1.0" encoding="UTF-8"?>
<svg id="Layer_1" xmlns="http://www.w3.org/2000/svg" version="1.1" viewBox="0 0 138 48">
  <!-- Generator: Adobe Illustrator 30.4.0, SVG Export Plug-In . SVG Version: 2.1.4 Build 226)  -->
  <defs>
    <style>
      .st0 {
        fill: #fff;
      }
    </style>
  </defs>
  <path class="st0" d="M16.5,17.5c-.9-.3-1.6-.4-2.5-.4-3.8,0-6,2.3-6,6.4s2.1,6.2,6,6.2,1.5,0,2.6-.2v-12.1ZM16.5,0h7.5v34.8c-3.9.7-6.7,1-9.8,1C5.1,35.8.3,31.7.3,23.7s5.1-12.6,12.9-12.6,2.1,0,3.3.4V0Z"/>
  <path class="st0" d="M28.5,0h7.5v7.7h-7.5V0ZM36,11.6v17.4c0,6-.4,8.9-1.8,11.4-1.2,2.4-2.8,3.9-6.1,5.6l-7-3.3c3.3-1.6,4.9-2.9,6-5,1.1-2.1,1.4-4.6,1.4-11.2v-14.8h7.5Z"/>
  <path class="st0" d="M52.3,25.3c-5,.5-6.6,1.3-6.6,3.2s.9,2.1,3,2.1,2.1,0,3.6-.3v-5ZM40.5,13.3c3.3-1.6,6.5-2.2,10-2.2s6.4,1,7.5,3c.6,1.1.8,2.6.8,5.7v15.3c-3.4.5-7.6.8-10.7.8-6.3,0-9.1-2.2-9.1-7.1s3.8-7.7,13-8.5v-1.7c0-1.4-.7-1.9-2.6-1.9-2.8,0-5.9.8-8.8,2.3v-5.8Z"/>
  <path class="st0" d="M62.5,12.8c4.4-1.2,8.1-1.7,11.8-1.7s6.6.9,8.3,2.6c1.6,1.6,2,3.4,2,7.1v14.7h-7.5v-14.4c0-2.9-1-4-3.7-4s-2,0-3.5.5v17.9h-7.5V12.8Z"/>
  <path class="st0" d="M102.5,17.2h-.8c-1.5,0-3.2.3-4.3,1.1-1.8,1-2.7,2.9-2.7,5.5,0,3.8,1.9,5.9,5.2,5.9s1.9-.2,2.8-.5v-2.6c0-.9,0-1.9,0-2.9v-3.5s0-2.5,0-2.5v-.6ZM87.5,39.6c2.6,1.4,5.3,2,8.1,2,4.9,0,7-2,7-6.8h0c-1.5.6-2.9.9-4.9.9-6.6,0-10.8-4.3-10.8-11.2s6.2-13.4,17.2-13.4,6.2.3,9.8,1.1l-2.6,5.4c-2-.4-.2,0-1.7-.2v4c0,0,.1,4.1.1,4.1,0,1,0,2,0,3.1v2c0,6.4-.5,9.5-2.1,12-2.3,3.7-6.4,5.5-12.1,5.5s-5.5-.4-8.1-1.5v-6.9Z"/>
  <path class="st0" d="M125.4,30.1c2.9,0,4.6-2.4,4.6-6.5s-1.7-6.5-4.5-6.5-4.7,2.4-4.7,6.5,1.7,6.5,4.6,6.5M125.6,11c7.5,0,12.1,4.7,12.1,12.4s-4.8,12.8-12.4,12.8-12.1-4.7-12.1-12.3,4.8-12.8,12.4-12.8"/>
</svg>