<svg xmlns="http://www.w3.org/2000/svg" id="Layer_1" data-name="Layer 1" viewBox="0.0 0.0 70.0 70.0" width="70.0" height="70.0">
  <defs>
    <style>
      .cls-1 {
        opacity: .5;
      }

      .cls-1, .cls-2, .cls-3 {
        fill: #fff;
      }

      .cls-2 {
        opacity: .75;
      }

      .cls-4 {
        fill: #94b49f;
      }
    </style>
  </defs>
  <g>
    <path class="cls-4" d="M8.24,0h45.29v61.76c0,4.55-3.69,8.24-8.24,8.24H0V8.24C0,3.69,3.69,0,8.24,0Z" />
    <g>
      <rect class="cls-3" x="37.06" y="11.52" width="32.94" height="32.94" rx="4.12" ry="4.12" />
      <path class="cls-4" d="M65.88,12.35c1.82,0,3.29,1.48,3.29,3.29v24.71c0,1.82-1.48,3.29-3.29,3.29h-24.71c-1.82,0-3.29-1.48-3.29-3.29V15.64c0-1.82,1.48-3.29,3.29-3.29h24.71M65.88,11.52h-24.71c-2.27,0-4.12,1.84-4.12,4.12v24.71c0,2.27,1.84,4.12,4.12,4.12h24.71c2.27,0,4.12-1.84,4.12-4.12V15.64c0-2.27-1.84-4.12-4.12-4.12h0Z" />
    </g>
    <rect class="cls-3" x="12.35" y="12.35" width="4.12" height="4.12" />
    <rect class="cls-2" x="20.59" y="12.35" width="4.12" height="4.12" />
    <rect class="cls-1" x="28.82" y="12.35" width="4.12" height="4.12" />
    <path class="cls-3" d="M12.35,57.21v-19.64c0-2.26,1.66-3.58,3.52-3.58,1.49,0,2.67.54,3.41,1.79l8.99,15.42v-16.73h4.67v19.64c0,2.26-1.66,3.55-3.45,3.55-1.45,0-2.7-.51-3.45-1.76l-8.99-15.52v16.84h-4.7Z" />
  </g>
  <g>
    <path class="cls-4" d="M50.64,22.63c.65,0,1.22.3,1.6.77l.49-.49c-.5-.59-1.25-.96-2.08-.96-1.15,0-2.13.71-2.54,1.72h-.89v.69h.76c-.02.12-.07.22-.07.34s.05.23.07.34h-.76v.69h.89c.41,1,1.39,1.72,2.54,1.72.84,0,1.58-.38,2.08-.96l-.49-.49c-.38.47-.95.77-1.6.77-.75,0-1.38-.43-1.74-1.03h1.74v-.69h-1.99c-.02-.12-.07-.22-.07-.34s.05-.23.07-.34h1.99v-.69h-1.74c.36-.6.99-1.03,1.74-1.03Z" />
    <path class="cls-4" d="M56.8,25.24h-.03c.02-.19.06-.37.06-.56s-.04-.36-.05-.54h.03c0-.1-.04-.19-.06-.29-.04-.31-.09-.6-.17-.89-.02-.09-.02-.19-.05-.27h-.03c-.11-.34-.25-.68-.42-1h.02c-.04-.09-.1-.15-.15-.23-.16-.28-.33-.55-.53-.8-.05-.07-.09-.15-.14-.22l-.02.02c-.24-.28-.49-.54-.78-.78l.02-.02c-.07-.06-.15-.09-.22-.14-.25-.2-.52-.37-.8-.53-.08-.04-.14-.11-.22-.15v.02c-.33-.17-.67-.31-1.02-.42v-.03c-.08-.03-.17-.03-.26-.05-.29-.08-.59-.14-.89-.18-.1-.01-.19-.05-.29-.06v.03c-.18-.01-.36-.05-.55-.05s-.37.04-.55.05v-.03c-.1,0-.19.04-.29.06-.31.04-.6.09-.89.17-.09.02-.19.03-.27.05v.03c-.34.11-.68.25-1,.42v-.02c-.09.04-.15.1-.23.15-.28.16-.55.34-.8.53-.07.05-.15.09-.22.14l.02.02c-.28.24-.54.5-.78.78l-.02-.02c-.06.07-.09.15-.14.21-.2.25-.37.52-.53.8-.04.08-.11.14-.15.22h.02c-.17.33-.3.67-.42,1.02h-.03c-.03.07-.03.17-.05.26-.08.29-.13.59-.17.9-.01.1-.05.19-.06.29h.03c-.01.18-.05.35-.05.54s.04.37.06.56h-.03c0,.1.04.19.06.29.04.31.1.6.18.9.02.09.03.18.05.27h.03c.11.34.25.68.42,1h-.02c.04.09.1.15.15.23.16.28.33.54.53.79.05.07.09.15.15.22l.02-.02c.24.28.5.54.78.78l-.02.02c.07.06.15.09.22.14.25.2.51.37.79.53.08.04.14.11.22.15v-.02c.33.17.67.31,1.02.42v.03c.08.03.17.03.26.05.29.08.58.13.89.17.1.01.19.05.29.06v-.03c.18.02.36.06.55.06s.37-.04.55-.06v.03c.1,0,.19-.04.29-.06.3-.04.6-.09.89-.17.09-.02.19-.03.27-.05v-.03c.34-.11.68-.25,1-.42v.02c.09-.04.15-.1.23-.15.28-.16.54-.33.79-.53.07-.05.15-.09.22-.15l-.02-.02c.28-.24.54-.49.78-.78l.02.02c.06-.07.09-.15.15-.22.2-.25.37-.51.53-.79.04-.08.11-.14.15-.22h-.02c.17-.33.31-.67.42-1.02h.03c.03-.07.03-.17.05-.26.08-.29.14-.59.18-.89.01-.1.05-.19.06-.29ZM56,24.69c0,.19-.04.37-.06.56h-.82c.02-.19.06-.37.06-.56s-.03-.36-.05-.54h.82c.02.18.05.35.05.54ZM55.72,23.02l-.76.31c-.1-.36-.24-.7-.42-1.01l.76-.31c.17.32.31.66.42,1.01ZM53.65,27.33s0,0,0,0c-.23.29-.48.54-.78.77,0,0,0,0,0,0h0c-.16.12-.32.23-.49.33h0c-.49.28-1.02.45-1.6.53h0c-.19.02-.35.11-.55.11s-.36-.09-.55-.11h0c-.58-.08-1.11-.25-1.6-.53h0c-.17-.1-.33-.21-.49-.33h0s0,0,0,0c-.3-.23-.55-.48-.78-.77,0,0,0,0,0,0h0c-.12-.16-.23-.32-.33-.49-.37-.65-.65-1.36-.65-2.16,0-1.01.4-1.9.97-2.64h0c.23-.3.48-.55.77-.78,0,0,0,0,0,0h0c.16-.12.32-.23.5-.33,0,0,0,0,0,0,.32-.18.65-.31,1.01-.41,0,0,0,0,0,0h0c.19-.05.38-.09.59-.12h0c.19-.02.35-.11.55-.11s.36.09.55.11h0c.2.03.39.07.58.12h0c.36.1.69.23,1.01.41,0,0,0,0,0,0,.17.1.34.21.5.34h0s0,0,0,0c.29.23.54.48.77.78t0,0c.57.74.97,1.63.97,2.64s-.4,1.9-.98,2.65h0ZM54.66,21.04l-.58.58c-.23-.29-.49-.55-.78-.78l.58-.58c.28.23.54.49.78.78ZM52.93,19.62l-.31.76c-.32-.18-.66-.32-1.01-.42l.31-.76c.35.11.69.25,1.01.42ZM50.24,18.92c.19,0,.37.04.55.06v.82c-.18-.02-.36-.06-.55-.06s-.37.03-.55.06v-.82c.18-.02.36-.06.55-.06ZM48.55,19.2l.31.76c-.36.1-.7.24-1.01.42l-.31-.76c.32-.17.66-.31,1.01-.42ZM46.58,20.27l.58.58c-.29.23-.55.49-.78.78l-.58-.58c.23-.28.49-.54.78-.78ZM45.17,22l.76.31c-.18.32-.32.66-.42,1.01l-.76-.31c.11-.36.25-.69.42-1.01ZM44.47,24.69c0-.18.04-.36.05-.54h.82c-.02.18-.05.35-.05.54s.04.37.06.56h-.82c-.02-.19-.06-.37-.06-.56ZM44.75,26.37l.76-.31c.1.36.24.69.42,1.01l-.76.31c-.17-.32-.31-.66-.42-1.01ZM45.81,28.34l.58-.58c.23.29.49.55.78.78l-.58.58c-.28-.23-.54-.49-.78-.78ZM47.55,29.75l.31-.76c.32.18.66.32,1.01.42l-.31.76c-.36-.11-.69-.25-1.01-.42ZM50.24,30.45c-.19,0-.37-.04-.55-.06v-.82c.18.02.36.05.55.05s.37-.03.55-.05v.82c-.18.02-.36.06-.55.06ZM51.91,30.17l-.31-.76c.36-.1.7-.24,1.01-.42l.31.76c-.32.17-.66.31-1.01.42ZM53.88,29.12l-.58-.58c.29-.23.55-.49.78-.78l.58.58c-.23.28-.49.54-.78.78ZM55.3,27.39l-.76-.31c.18-.32.32-.66.42-1.01l.76.31c-.11.36-.25.69-.42,1.01Z" />
  </g>
  <path class="cls-4" d="M63.32,33.5c-.04-.15-.07-.31-.17-.41l-3.37-3.37c-.32-.32-.84-.32-1.16,0-.32.32-.32.84,0,1.16l1.97,1.97h-12.56c-.46,0-.82.37-.82.82s.37.82.82.82h12.56l-1.97,1.97c-.32.32-.32.84,0,1.16.16.16.37.24.58.24s.42-.08.58-.24l3.37-3.37c.15-.15.24-.36.24-.58h0c0-.06-.06-.11-.07-.17Z" />
</svg>