<svg xmlns="http://www.w3.org/2000/svg" id="Layer_1" data-name="Layer 1" viewBox="0.0 0.0 70.0 70.0" width="70.0" height="70.0">
  <defs>
    <style>
      .cls-1 {
        opacity: .5;
      }

      .cls-1, .cls-2, .cls-3 {
        fill: #fff;
      }

      .cls-2 {
        opacity: .75;
      }

      .cls-4 {
        fill: #66bb6a;
      }
    </style>
  </defs>
  <g>
    <path class="cls-4" d="M8.24,0h45.29v61.76c0,4.55-3.69,8.24-8.24,8.24H0V8.24C0,3.69,3.69,0,8.24,0Z" />
    <g>
      <rect class="cls-3" x="37.06" y="11.52" width="32.94" height="32.94" rx="4.12" ry="4.12" />
      <path class="cls-4" d="M65.88,12.35c1.82,0,3.29,1.48,3.29,3.29v24.71c0,1.82-1.48,3.29-3.29,3.29h-24.71c-1.82,0-3.29-1.48-3.29-3.29V15.64c0-1.82,1.48-3.29,3.29-3.29h24.71M65.88,11.52h-24.71c-2.27,0-4.12,1.84-4.12,4.12v24.71c0,2.27,1.84,4.12,4.12,4.12h24.71c2.27,0,4.12-1.84,4.12-4.12V15.64c0-2.27-1.84-4.12-4.12-4.12h0Z" />
    </g>
    <rect class="cls-3" x="12.35" y="12.35" width="4.12" height="4.12" />
    <rect class="cls-2" x="20.59" y="12.35" width="4.12" height="4.12" />
    <rect class="cls-1" x="28.82" y="12.35" width="4.12" height="4.12" />
    <path class="cls-3" d="M12.35,57.21v-19.64c0-2.26,1.66-3.58,3.52-3.58,1.49,0,2.67.54,3.41,1.79l8.99,15.42v-16.73h4.67v19.64c0,2.26-1.66,3.55-3.45,3.55-1.45,0-2.7-.51-3.45-1.76l-8.99-15.52v16.84h-4.7Z" />
  </g>
  <g>
    <path class="cls-4" d="M65.04,17.32v-1.65h-12.35v6.56h12.35v-1.65h0v-3.27h0ZM63.39,20.59h-9.06v-3.27h9.06v3.27Z" />
    <path class="cls-4" d="M64.22,38.7h-5.76c-.45,0-.82.37-.82.82s.37.82.82.82h5.76c.45,0,.82-.37.82-.82s-.37-.82-.82-.82Z" />
    <path class="cls-4" d="M60.35,30.61c-.62-.21-1.37,0-1.65.47-1.16,1.94-2.81,3.75-4.41,5.5-.79.87-1.53,1.6-2.48,1.84-.05.01-.09.02-.12.02-.28-.9-.12-1.9.42-2.73.13-.2.28-.4.44-.6.68-.9,1.52-2.01.92-3.26-.27-.55-.79-.95-1.44-1.1-.71-.17-1.37.02-1.65.1-4.4,1.25-7.76,4.47-8.38,8-.09.52.39,1,1.08,1.06.67.06,1.31-.29,1.4-.81.49-2.78,3.08-5.33,6.69-6.44.04.37-.3.85-.79,1.5-.18.23-.35.47-.5.7-.82,1.24-1.04,2.67-.62,4.02.08.27.21.58.51.86.43.39,1.08.6,1.81.6.32,0,.65-.04.98-.12,1.84-.45,2.96-1.67,3.78-2.56,1.66-1.82,3.38-3.71,4.63-5.8.29-.48,0-1.04-.62-1.25Z" />
    <path class="cls-4" d="M42.97,22.76l12.01,5.43,1.36-3-12.01-5.43c-.83-.38-1.8,0-2.18.82s0,1.81.82,2.18Z" />
    <polygon class="cls-4" points="57.84 25.87 56.48 28.87 61.66 29.4 57.84 25.87" />
  </g>
</svg>