<svg xmlns="http://www.w3.org/2000/svg" id="Layer_1" data-name="Layer 1" viewBox="0.0 0.0 70.0 70.0" width="70.0" height="70.0">
  <defs>
    <style>
      .cls-1 {
        fill: #ba4591;
      }

      .cls-2 {
        opacity: .5;
      }

      .cls-2, .cls-3, .cls-4 {
        fill: #fff;
      }

      .cls-3 {
        opacity: .75;
      }
    </style>
  </defs>
  <path class="cls-1" d="M8.24,0h45.29v61.76c0,4.55-3.69,8.24-8.24,8.24H0V8.24C0,3.69,3.69,0,8.24,0Z" />
  <g>
    <rect class="cls-4" x="37.06" y="11.52" width="32.94" height="32.94" rx="4.12" ry="4.12" />
    <path class="cls-1" d="M65.88,12.35c1.82,0,3.29,1.48,3.29,3.29v24.71c0,1.82-1.48,3.29-3.29,3.29h-24.71c-1.82,0-3.29-1.48-3.29-3.29V15.64c0-1.82,1.48-3.29,3.29-3.29h24.71M65.88,11.52h-24.71c-2.27,0-4.12,1.84-4.12,4.12v24.71c0,2.27,1.84,4.12,4.12,4.12h24.71c2.27,0,4.12-1.84,4.12-4.12V15.64c0-2.27-1.84-4.12-4.12-4.12h0Z" />
  </g>
  <rect class="cls-4" x="12.35" y="12.35" width="4.12" height="4.12" />
  <rect class="cls-3" x="20.59" y="12.35" width="4.12" height="4.12" />
  <rect class="cls-2" x="28.82" y="12.35" width="4.12" height="4.12" />
  <path class="cls-4" d="M12.35,57.21v-19.64c0-2.26,1.66-3.58,3.52-3.58,1.49,0,2.67.54,3.41,1.79l8.99,15.42v-16.73h4.67v19.64c0,2.26-1.66,3.55-3.45,3.55-1.45,0-2.7-.51-3.45-1.76l-8.99-15.52v16.84h-4.7Z" />
  <g>
    <g>
      <polygon class="cls-1" points="53.53 20.43 46.33 24.64 46.33 25.24 60.73 25.24 60.73 24.64 53.53 20.43" />
      <polyline class="cls-1" points="60.13 33.67 60.13 32.43 46.93 32.43 46.93 33.67" />
      <polygon class="cls-1" points="47.53 30.63 47.53 31.83 51.13 31.83 51.13 30.63 50.23 30.63 50.23 27.03 51.13 27.03 51.13 25.83 47.53 25.83 47.53 27.03 48.43 27.03 48.43 30.63 47.53 30.63" />
      <polygon class="cls-1" points="55.93 30.63 55.93 31.83 59.53 31.83 59.53 30.63 58.63 30.63 58.63 27.03 59.53 27.03 59.53 25.83 55.93 25.83 55.93 27.03 56.83 27.03 56.83 30.63 55.93 30.63" />
      <polygon class="cls-1" points="51.73 30.63 51.73 31.83 55.33 31.83 55.33 30.63 54.43 30.63 54.43 27.03 55.33 27.03 55.33 25.83 51.73 25.83 51.73 27.03 52.63 27.03 52.63 30.63 51.73 30.63" />
    </g>
    <g>
      <path class="cls-1" d="M53.53,40.88l-11.16-6.44v-12.89l11.16-6.44,11.16,6.44v12.89l-11.16,6.44ZM43.92,33.55l9.61,5.55,9.61-5.55v-11.1l-9.61-5.55-9.61,5.55v11.1Z" />
      <circle class="cls-1" cx="53.53" cy="16" r="1.59" />
      <circle class="cls-1" cx="53.53" cy="39.99" r="1.59" />
      <circle class="cls-1" cx="43.14" cy="34.06" r="1.59" />
      <circle class="cls-1" cx="63.92" cy="34.06" r="1.59" />
      <circle class="cls-1" cx="43.14" cy="21.98" r="1.59" />
      <circle class="cls-1" cx="63.92" cy="21.98" r="1.59" />
    </g>
  </g>
</svg>