<svg xmlns="http://www.w3.org/2000/svg" id="Layer_1" data-name="Layer 1" viewBox="0.0 0.0 70.0 70.0" width="70.0" height="70.0">
  <defs>
    <style>
      .cls-1 {
        fill: #c83e33;
      }

      .cls-2 {
        opacity: .5;
      }

      .cls-2, .cls-3, .cls-4 {
        fill: #fff;
      }

      .cls-3 {
        opacity: .75;
      }
    </style>
  </defs>
  <path class="cls-1" d="M8.24,0h45.29v61.76c0,4.55-3.69,8.24-8.24,8.24H0V8.24C0,3.69,3.69,0,8.24,0Z" />
  <g>
    <rect class="cls-4" x="37.06" y="11.52" width="32.94" height="32.94" rx="4.12" ry="4.12" />
    <path class="cls-1" d="M65.88,12.35c1.82,0,3.29,1.48,3.29,3.29v24.71c0,1.82-1.48,3.29-3.29,3.29h-24.71c-1.82,0-3.29-1.48-3.29-3.29V15.64c0-1.82,1.48-3.29,3.29-3.29h24.71M65.88,11.52h-24.71c-2.27,0-4.12,1.84-4.12,4.12v24.71c0,2.27,1.84,4.12,4.12,4.12h24.71c2.27,0,4.12-1.84,4.12-4.12V15.64c0-2.27-1.84-4.12-4.12-4.12h0Z" />
  </g>
  <rect class="cls-4" x="12.35" y="12.35" width="4.12" height="4.12" />
  <rect class="cls-3" x="20.59" y="12.35" width="4.12" height="4.12" />
  <rect class="cls-2" x="28.82" y="12.35" width="4.12" height="4.12" />
  <path class="cls-4" d="M12.35,57.21v-19.64c0-2.26,1.66-3.58,3.52-3.58,1.49,0,2.67.54,3.41,1.79l8.99,15.42v-16.73h4.67v19.64c0,2.26-1.66,3.55-3.45,3.55-1.45,0-2.7-.51-3.45-1.76l-8.99-15.52v16.84h-4.7Z" />
  <path class="cls-1" d="M54.36,30.19c-.21,0-.42-.08-.58-.24-.32-.32-.32-.84,0-1.16l8.23-8.23c.32-.32.84-.32,1.16,0s.32.84,0,1.16l-8.23,8.23c-.16.16-.37.24-.58.24Z" />
  <path class="cls-1" d="M44.48,35.65c-.21,0-.42-.08-.58-.24-.32-.32-.32-.84,0-1.16l7.67-7.67c.32-.32.84-.32,1.16,0s.32.84,0,1.16l-7.67,7.67c-.16.16-.37.24-.58.24Z" />
  <path class="cls-1" d="M54.36,30.19c-.21,0-.42-.08-.58-.24l-2.22-2.22c-.32-.32-.32-.84,0-1.16.32-.32.84-.32,1.16,0l2.22,2.22c.32.32.32.84,0,1.16-.16.16-.37.24-.58.24Z" />
  <path class="cls-1" d="M62.59,26.73c-.46,0-.82-.37-.82-.82v-4.77c0-.45.37-.82.82-.82s.82.37.82.82v4.77c0,.45-.37.82-.82.82Z" />
  <path class="cls-1" d="M62.59,21.96h-4.77c-.46,0-.82-.37-.82-.82s.37-.82.82-.82h4.77c.46,0,.82.37.82.82s-.37.82-.82.82Z" />
</svg>