<svg xmlns="http://www.w3.org/2000/svg" id="Layer_1" data-name="Layer 1" viewBox="0.0 0.0 70.0 70.0" width="70.0" height="70.0">
  <defs>
    <style>
      .cls-1 {
        fill: #3e849e;
      }

      .cls-2 {
        opacity: .5;
      }

      .cls-2, .cls-3, .cls-4 {
        fill: #fff;
      }

      .cls-3 {
        opacity: .75;
      }
    </style>
  </defs>
  <g>
    <path class="cls-1" d="M8.24,0h45.29v61.76c0,4.55-3.69,8.24-8.24,8.24H0V8.24C0,3.69,3.69,0,8.24,0Z" />
    <g>
      <rect class="cls-4" x="37.06" y="11.52" width="32.94" height="32.94" rx="4.12" ry="4.12" />
      <path class="cls-1" d="M65.88,12.35c1.82,0,3.29,1.48,3.29,3.29v24.71c0,1.82-1.48,3.29-3.29,3.29h-24.71c-1.82,0-3.29-1.48-3.29-3.29V15.64c0-1.82,1.48-3.29,3.29-3.29h24.71M65.88,11.52h-24.71c-2.27,0-4.12,1.84-4.12,4.12v24.71c0,2.27,1.84,4.12,4.12,4.12h24.71c2.27,0,4.12-1.84,4.12-4.12V15.64c0-2.27-1.84-4.12-4.12-4.12h0Z" />
    </g>
    <rect class="cls-4" x="12.35" y="12.35" width="4.12" height="4.12" />
    <rect class="cls-3" x="20.59" y="12.35" width="4.12" height="4.12" />
    <rect class="cls-2" x="28.82" y="12.35" width="4.12" height="4.12" />
    <path class="cls-4" d="M12.35,57.21v-19.64c0-2.26,1.66-3.58,3.52-3.58,1.49,0,2.67.54,3.41,1.79l8.99,15.42v-16.73h4.67v19.64c0,2.26-1.66,3.55-3.45,3.55-1.45,0-2.7-.51-3.45-1.76l-8.99-15.52v16.84h-4.7Z" />
  </g>
  <path class="cls-1" d="M55.95,35.39c-2.74,0-5.1-1.5-6.38-3.71h6.38v-2.47h-7.29c-.07-.4-.12-.81-.12-1.24s.06-.83.12-1.24h7.29v-2.47h-6.38c1.28-2.21,3.65-3.71,6.38-3.71,2.33,0,4.39,1.08,5.75,2.76l1.76-1.76c-1.81-2.12-4.5-3.47-7.51-3.47-4.14,0-7.68,2.56-9.15,6.18h-3.2v2.47h2.6c-.05.41-.12.81-.12,1.24s.07.83.12,1.24h-2.59v2.47h3.2c1.47,3.62,5,6.18,9.15,6.18,3.01,0,5.69-1.35,7.51-3.47l-1.76-1.76c-1.36,1.68-3.42,2.76-5.75,2.76Z" />
</svg>