<svg xmlns="http://www.w3.org/2000/svg" id="Layer_1" data-name="Layer 1" viewBox="0.0 0.0 70.0 70.0" width="70.0" height="70.0">
  <defs>
    <style>
      .cls-1 {
        opacity: .5;
      }

      .cls-1, .cls-2, .cls-3 {
        fill: #fff;
      }

      .cls-2 {
        opacity: .75;
      }

      .cls-4 {
        fill: #c6a04b;
      }
    </style>
  </defs>
  <g>
    <path class="cls-4" d="M8.24,0h45.29v61.76c0,4.55-3.69,8.24-8.24,8.24H0V8.24C0,3.69,3.69,0,8.24,0Z" />
    <g>
      <rect class="cls-3" x="37.06" y="11.52" width="32.94" height="32.94" rx="4.12" ry="4.12" />
      <path class="cls-4" d="M65.88,12.35c1.82,0,3.29,1.48,3.29,3.29v24.71c0,1.82-1.48,3.29-3.29,3.29h-24.71c-1.82,0-3.29-1.48-3.29-3.29V15.64c0-1.82,1.48-3.29,3.29-3.29h24.71M65.88,11.52h-24.71c-2.27,0-4.12,1.84-4.12,4.12v24.71c0,2.27,1.84,4.12,4.12,4.12h24.71c2.27,0,4.12-1.84,4.12-4.12V15.64c0-2.27-1.84-4.12-4.12-4.12h0Z" />
    </g>
    <rect class="cls-3" x="12.35" y="12.35" width="4.12" height="4.12" />
    <rect class="cls-2" x="20.59" y="12.35" width="4.12" height="4.12" />
    <rect class="cls-1" x="28.82" y="12.35" width="4.12" height="4.12" />
    <path class="cls-3" d="M12.35,57.21v-19.64c0-2.26,1.66-3.58,3.52-3.58,1.49,0,2.67.54,3.41,1.79l8.99,15.42v-16.73h4.67v19.64c0,2.26-1.66,3.55-3.45,3.55-1.45,0-2.7-.51-3.45-1.76l-8.99-15.52v16.84h-4.7Z" />
  </g>
  <g>
    <path class="cls-4" d="M64.2,23.14v9.78c0,.36.29.65.65.65s.65-.29.65-.65v-9.78c0-.36-.29-.65-.65-.65s-.65.29-.65.65Z" />
    <path class="cls-4" d="M63.12,18.44c-.25-.25-.66-.25-.92,0l-3.61,3.61c-1.37-1.16-3.14-1.86-5.07-1.86s-3.7.7-5.07,1.86l-3.61-3.61c-.25-.25-.66-.25-.92,0-.25.25-.25.66,0,.92l3.61,3.61c-1.16,1.37-1.86,3.14-1.86,5.07s.7,3.7,1.86,5.07l-3.61,3.61c-.25.25-.25.66,0,.92.13.13.29.19.46.19s.33-.06.46-.19l3.61-3.61c1.37,1.16,3.14,1.86,5.07,1.86s3.7-.7,5.07-1.86l3.61,3.61c.13.13.29.19.46.19s.33-.06.46-.19c.25-.25.25-.66,0-.92l-3.61-3.61c1.16-1.37,1.86-3.14,1.86-5.07s-.7-3.7-1.86-5.07l3.61-3.61c.25-.25.25-.66,0-.92ZM53.53,29.76c-.46,0-.9-.18-1.22-.51-.68-.68-.68-1.77,0-2.45.33-.33.76-.51,1.22-.51s.9.18,1.22.51c.33.33.51.76.51,1.22s-.18.9-.51,1.22c-.33.33-.76.51-1.22.51ZM55.43,25.68c-.14-.11-.29-.21-.45-.3l1.35-3.26c.58.28,1.12.64,1.59,1.07l-2.49,2.49ZM54.38,25.13c-.17-.05-.35-.09-.53-.1v-3.53c.66.03,1.29.16,1.88.37l-1.35,3.26ZM53.2,25.02c-.18.02-.36.05-.53.1l-1.35-3.26c.59-.21,1.22-.34,1.88-.37v3.53ZM52.07,25.37c-.16.09-.31.19-.45.3l-2.49-2.49c.47-.43,1.01-.79,1.59-1.07l1.35,3.26ZM48.68,23.64l2.49,2.49c-.11.14-.21.29-.3.45l-3.26-1.35c.28-.58.64-1.12,1.07-1.59ZM50.62,27.18c-.05.17-.08.35-.1.53h-3.53c.03-.66.16-1.29.37-1.88l3.26,1.35ZM50.52,28.36c.02.18.05.36.1.53l-3.26,1.35c-.21-.59-.34-1.22-.37-1.88h3.53ZM50.87,29.48c.09.16.18.31.3.45l-2.49,2.49c-.43-.47-.79-1.01-1.07-1.59l3.26-1.35ZM51.63,30.39c.14.11.29.21.45.3l-1.35,3.26c-.58-.28-1.12-.64-1.59-1.07l2.49-2.49ZM52.67,30.94c.17.05.35.09.53.1v3.53c-.66-.03-1.29-.16-1.88-.37l1.35-3.26ZM53.85,31.04c.18-.02.36-.05.53-.1l1.35,3.26c-.59.21-1.22.34-1.88.37v-3.53ZM54.98,30.69c.16-.09.31-.19.45-.3l2.49,2.49c-.47.43-1.01.79-1.59,1.07l-1.35-3.26ZM58.38,32.43l-2.49-2.49c.11-.14.21-.29.3-.45l3.26,1.35c-.28.58-.64,1.12-1.07,1.59ZM56.43,28.89c.05-.17.09-.35.1-.53h3.53c-.03.66-.16,1.29-.37,1.88l-3.26-1.35ZM56.54,27.71c-.02-.18-.05-.36-.1-.53l3.26-1.35c.21.59.34,1.22.37,1.88h-3.53ZM56.18,26.58c-.09-.16-.19-.31-.3-.45l2.49-2.49c.43.47.79,1.01,1.07,1.59l-3.26,1.35Z" />
    <path class="cls-4" d="M41.41,38.57c-.44.44-.44,1.15,0,1.58.44.44,1.15.44,1.58,0,.44-.44.44-1.15,0-1.58-.44-.44-1.15-.44-1.58,0Z" />
    <path class="cls-4" d="M64.06,38.57c-.44.44-.44,1.15,0,1.58.44.44,1.15.44,1.58,0,.44-.44.44-1.15,0-1.58-.44-.44-1.15-.44-1.58,0Z" />
    <path class="cls-4" d="M65.64,17.5c.44-.44.44-1.15,0-1.58-.44-.44-1.15-.44-1.58,0-.44.44-.44,1.15,0,1.58.44.44,1.15.44,1.58,0Z" />
    <path class="cls-4" d="M41.41,15.92c-.44.44-.44,1.15,0,1.58.44.44,1.15.44,1.58,0,.44-.44.44-1.15,0-1.58-.44-.44-1.15-.44-1.58,0Z" />
    <path class="cls-4" d="M54.32,17.5c.44-.44.44-1.15,0-1.58-.44-.44-1.15-.44-1.58,0-.44.44-.44,1.15,0,1.58.44.44,1.15.44,1.58,0Z" />
    <path class="cls-4" d="M41.41,27.24c-.44.44-.44,1.15,0,1.58.44.44,1.15.44,1.58,0,.44-.44.44-1.15,0-1.58-.44-.44-1.15-.44-1.58,0Z" />
    <path class="cls-4" d="M52.73,38.57c-.44.44-.44,1.15,0,1.58.44.44,1.15.44,1.58,0,.44-.44.44-1.15,0-1.58-.44-.44-1.15-.44-1.58,0Z" />
  </g>
</svg>