<svg xmlns="http://www.w3.org/2000/svg" id="Layer_1" version="1.1" viewBox="0.0 0.0 166.0 48.0" width="165.1" height="48.0">
  
  <defs>
    <style>
      .st0 {
        fill: #fff;
      }
    </style>
  </defs>
  <polygon class="st0" points="58.5 10.4 74.7 10.4 74.7 13.6 61.8 13.6 61.8 23.2 73.5 23.2 73.5 26.3 61.8 26.3 61.8 38.5 58.5 38.5 58.5 10.4" />
  <rect class="st0" x="78.1" y="10.4" width="3.3" height="28" />
  <path class="st0" d="M87.1,37c-1.3-1.4-1.9-3.4-1.9-5.9v-12.6h3.3v12c0,1.9.4,3.3,1.3,4.2.9.9,2,1.3,3.5,1.3,1.1,0,2.1-.3,3-.9.9-.6,1.6-1.4,2-2.3.5-.9.7-2,.7-3.1v-11.3h3.3v20h-3.2v-2.9h-.2c-.6,1.1-1.5,1.9-2.6,2.5-1.2.7-2.5,1-3.8,1-2.4,0-4.2-.7-5.5-2.1" />
  <path class="st0" d="M112.1,38.7c-.6-.2-1.2-.6-1.7-1.1-.5-.5-.9-1.1-1.2-1.8-.3-.8-.4-1.6-.4-2.4v-11.9h-3.5v-3h3.5v-5.6h3.3v5.6h4.9v3h-4.9v11.1c0,1.1.2,1.9.6,2.5.5.6,1.2.9,2.2.9.8,0,1.5-.2,2.2-.7v3.2c-.4.2-.8.3-1.2.4-.5,0-1,.1-1.5.1-.8,0-1.5-.1-2.2-.4" />
  <path class="st0" d="M125.9,38.7c-.6-.2-1.2-.6-1.7-1.1-.5-.5-.9-1.1-1.2-1.8-.3-.8-.4-1.6-.4-2.4v-11.9h-3.5v-3h3.5v-5.6h3.3v5.6h4.9v3h-4.9v11.1c0,1.1.2,1.9.6,2.5.5.6,1.2.9,2.2.9.8,0,1.5-.2,2.2-.7v3.2c-.4.2-.8.3-1.2.4-.5,0-1,.1-1.5.1-.8,0-1.5-.1-2.2-.4" />
  <path class="st0" d="M148,26.4c0-.9-.3-1.7-.7-2.5-.5-.9-1.1-1.6-2-2.1-1-.6-2.2-.9-3.4-.9-1.5,0-2.9.5-4,1.5-1.1,1.1-1.9,2.5-2.1,4h12.2ZM137.1,37.7c-1.5-.9-2.7-2.2-3.5-3.8-.9-1.7-1.3-3.5-1.3-5.4,0-1.8.4-3.7,1.2-5.3.8-1.6,1.9-2.9,3.4-3.9,1.5-1,3.3-1.5,5.1-1.4,1.8,0,3.5.4,5.1,1.3,1.4.9,2.6,2.1,3.3,3.6.8,1.6,1.2,3.5,1.2,5.3,0,.3,0,.7-.1,1h-15.8c0,1.4.4,2.7,1.1,3.8.6,1,1.5,1.8,2.5,2.3,1,.5,2.1.8,3.1.8,2.6,0,4.5-1.2,5.9-3.6l2.8,1.4c-.8,1.6-2,2.9-3.5,3.8-1.5.9-3.3,1.4-5.3,1.4-1.8,0-3.6-.5-5.1-1.4" />
  <path class="st0" d="M153.7,18.5h3.2v3.2h.2c.4-1.1,1.2-2.1,2.3-2.7,1-.7,2.3-1.1,3.5-1.1.8,0,1.6.1,2.3.4v3.6c-.9-.4-1.8-.6-2.8-.6-.9,0-1.9.3-2.7.8-.8.6-1.5,1.3-1.9,2.2-.5.9-.7,2-.7,3v11.2h-3.3v-20h0Z" />
  <path class="st0" d="M24,22.2l-12.9,12.9,7.4,7.4,5.5,5.5h14.8l-12.9-12.9,12.9-12.9h-14.8ZM24,0L0,24l7.4,7.4L38.8,0h-14.8Z" />
  <path class="st0" d="M24,22.2l-12.9,12.9,7.4,7.4,5.5,5.5h14.8l-12.9-12.9,12.9-12.9h-14.8ZM24,0L0,24l7.4,7.4L38.8,0h-14.8Z" />
  <path class="st0" d="M24,22.2l-12.9,12.9,7.4,7.4,5.5,5.5h14.8l-12.9-12.9,12.9-12.9h-14.8ZM24,0L0,24l7.4,7.4L38.8,0h-14.8Z" />
  <path class="st0" d="M24,22.2l-12.9,12.9,7.4,7.4,5.5,5.5h14.8l-12.9-12.9,12.9-12.9h-14.8ZM24,0L0,24l7.4,7.4L38.8,0h-14.8Z" />
  <path class="st0" d="M24,22.2l-12.9,12.9,7.4,7.4,5.5,5.5h14.8l-12.9-12.9,12.9-12.9h-14.8ZM24,0L0,24l7.4,7.4L38.8,0h-14.8Z" />
  <path class="st0" d="M24,22.2l-12.9,12.9,7.4,7.4,5.5,5.5h14.8l-12.9-12.9,12.9-12.9h-14.8ZM24,0L0,24l7.4,7.4L38.8,0h-14.8Z" />
  <path class="st0" d="M24,22.2l-12.9,12.9,7.4,7.4,5.5,5.5h14.8l-12.9-12.9,12.9-12.9h-14.8ZM24,0L0,24l7.4,7.4L38.8,0h-14.8Z" />
  <path class="st0" d="M24,22.2l-12.9,12.9,7.4,7.4,5.5,5.5h14.8l-12.9-12.9,12.9-12.9h-14.8ZM24,0L0,24l7.4,7.4L38.8,0h-14.8Z" />
  <path class="st0" d="M24,22.2l-12.9,12.9,7.4,7.4,5.5,5.5h14.8l-12.9-12.9,12.9-12.9h-14.8ZM24,0L0,24l7.4,7.4L38.8,0h-14.8Z" />
  <path class="st0" d="M24,22.2l-12.9,12.9,7.4,7.4,5.5,5.5h14.8l-12.9-12.9,12.9-12.9h-14.8ZM24,0L0,24l7.4,7.4L38.8,0h-14.8Z" />
  <polygon class="st0" points="24 22.2 11.1 35.1 18.5 42.5 24 48 38.8 48 25.8 35.1 38.8 22.2 24 22.2" />
  <polygon class="st0" points="24 0 0 24 7.4 31.4 38.8 0 24 0" />
</svg>