<svg xmlns="http://www.w3.org/2000/svg" id="Layer_1" version="1.1" viewBox="0.0 0.0 191.0 49.0" width="165" height="42">
  
  <defs>
    <style>
      .st0 {
        fill: #fff;
      }
    </style>
  </defs>
  <path class="st0" d="M10.7,39.3s-.8-.7-1.1-1.1h0s1-22.2,1-22.2c0,0,.1,0,.1,0l1,22.2h0c-.2.4-1.1,1.1-1.1,1.1M14.6,5.4c-1.9-2.2-3.5-4.5-3.8-4.9,0,0,0,0-.1,0-.3.5-1.9,2.7-3.8,4.9-16,20.4,2.5,34.1,2.5,34.1h.2c.1,2.2.5,5.3.5,5.3h1.4s.3-3,.5-5.2h.2c0-.1,18.5-13.9,2.5-34.2" />
  <path class="st0" d="M45.3,34.6l-7.7-18.7h0c0,0-6,0-6,0v1.3h1c.3,0,.6.1.8.3.2.2.3.5.3.8l-.2,18.8c0,.6-.5,1.1-1.1,1.1h-1v1.3h5.8v-1.2h-.6c-.6,0-1.1-.5-1.1-1.1v-17.7l8.4,20.1c.1.3.4.5.7.5s.6-.2.7-.5l8.2-19.6v17.3c.1.6-.4,1.1-1,1.1h-.6v1.2h6.8v-1.2h-.9c-.6,0-1.1-.5-1.1-1.1v-18.8c0-.6.4-1.1,1-1.1h1v-1.3h-5.8l-7.7,18.7Z" />
  <path class="st0" d="M99.1,38c-.2-.2-.3-.5-.3-.8v-9.3c0-1.8-.5-3.2-1.6-4.1-1-1-2.4-1.5-4.2-1.5s-4.4,1-5.8,3c0,0,0,0-.1,0s0,0,0,0l-.6-2.5h-1.1l-2.8,1.6v.9h.7c.3,0,.6,0,.8.3.2.2.3.4.3.8v10.9c0,.3-.1.6-.3.8s-.5.3-.8.3h-.7v1.3h6.3v-1.3h-.7c-.3,0-.6-.1-.8-.3s-.3-.5-.3-.8v-7.2c0-.9.2-1.8.6-2.7.4-.9,1-1.6,1.8-2.2.8-.6,1.7-.9,2.8-.9s2.1.4,2.7,1.1c.6.8.9,1.8.9,2.9v9c0,.3-.1.6-.3.8s-.5.3-.8.3h-.7v1.3h6.3v-1.3h-.7c-.3,0-.5,0-.7-.3" />
  <path class="st0" d="M159.5,27.7c0,2.2-.4,4.1-1.2,5.6-.8,1.5-1.8,2.6-3.1,3.4-1.3.7-2.7,1.1-4.2,1.1h-1.7c-.3,0-.6-.1-.9-.4-.3-.3-.4-.6-.4-.9v-17.5c0-.3.1-.6.4-.9.3-.3.5-.4.9-.4h1.7c1.5,0,2.9.4,4.2,1.1,1.3.7,2.3,1.9,3.1,3.4.8,1.5,1.2,3.4,1.2,5.6M157.1,17.3c-1.8-.9-3.7-1.4-5.8-1.4h-8.3v1.3h.8c.3,0,.6.1.9.4.3.3.4.6.4.9v18.6c0,.3-.1.6-.4.9-.3.3-.6.4-.9.4h-.8v1.3h8.3c2.1,0,4.1-.5,5.8-1.4,1.8-.9,3.2-2.3,4.2-4.1,1-1.8,1.6-3.9,1.6-6.3s-.5-4.5-1.6-6.3c-1-1.8-2.5-3.2-4.2-4.1" />
  <path class="st0" d="M170.3,26.3v-7.4c0-.3.1-.6.4-.9.3-.3.6-.4.9-.4h2.3c1.6,0,2.9.4,3.6,1.2.8.8,1.1,1.8,1.1,3.1s-.4,2.4-1.1,3.2c-.7.8-1.8,1.2-3.2,1.2h-4ZM170.7,37.3c-.3-.3-.4-.6-.4-.9v-8.4h4.8c1.7,0,3,.4,3.9,1.3.9.9,1.4,2,1.4,3.4s-.2,1.6-.6,2.4c-.4.8-1,1.4-1.8,1.8-.8.5-1.8.7-2.9.7h-3.6c-.3,0-.6-.1-.9-.4M182.3,28.9c-.8-.9-2.2-1.6-4-2,2.4-1.2,3.6-2.9,3.6-5s-.3-2.2-.9-3.1c-.6-.9-1.5-1.6-2.6-2.1-1.1-.5-2.4-.8-3.9-.8h-9.3v1.3h.7c.3,0,.6.1.9.4.3.3.4.6.4.9v18.6c0,.3-.1.6-.4.9-.3.3-.6.4-.9.4h-.8v1.3h10.1c1.5,0,3-.3,4.3-.8,1.3-.5,2.3-1.3,3.1-2.3.8-1,1.1-2.2,1.1-3.6,0-1.5-.5-2.8-1.4-3.9" />
  <path class="st0" d="M76.2,31.1c0,2.1-.5,3.8-1.5,5.1-1,1.2-2.4,1.9-4.1,1.9s-3.1-.6-4.1-1.9c-1-1.2-1.5-3-1.5-5.1s.5-3.8,1.5-5.1c1-1.2,2.4-1.9,4.1-1.9s3.1.6,4.1,1.9c1,1.2,1.5,2.9,1.5,5.1M75,23.4c-1.3-.7-2.8-1.1-4.4-1.1s-3.1.4-4.4,1.1c-1.3.7-2.4,1.8-3.1,3.1-.8,1.3-1.2,2.9-1.2,4.6s.4,3.3,1.2,4.6c.8,1.3,1.8,2.4,3.1,3.1,1.3.7,2.8,1.1,4.4,1.1s3.1-.4,4.4-1.1c1.3-.7,2.4-1.8,3.1-3.1.8-1.3,1.2-2.9,1.2-4.6s-.4-3.3-1.2-4.6c-.8-1.3-1.8-2.4-3.1-3.1" />
  <path class="st0" d="M137.2,31.1c0,2.1-.5,3.8-1.5,5.1-1,1.2-2.4,1.9-4.1,1.9s-3.1-.6-4.1-1.9c-1-1.2-1.5-3-1.5-5.1s.5-3.8,1.5-5.1c1-1.2,2.4-1.9,4.1-1.9s3.1.6,4.1,1.9c1,1.2,1.5,2.9,1.5,5.1M135.9,23.4c-1.3-.7-2.8-1.1-4.4-1.1s-3.1.4-4.4,1.1c-1.3.7-2.4,1.8-3.1,3.1-.8,1.3-1.2,2.9-1.2,4.6s.4,3.3,1.2,4.6c.8,1.3,1.8,2.4,3.1,3.1,1.3.7,2.8,1.1,4.4,1.1s3.1-.4,4.4-1.1c1.3-.7,2.4-1.8,3.1-3.1s1.2-2.9,1.2-4.6-.4-3.3-1.2-4.6c-.8-1.3-1.8-2.4-3.1-3.1" />
  <path class="st0" d="M108.7,39.5h4.7c1.3,0,2.1.3,2.7.8.6.6.8,1.3.8,2.2,0,1.3-.5,2.3-1.5,3.1-1,.8-2.4,1.2-4,1.2s-2.7-.3-3.6-1c-.9-.6-1.3-1.6-1.3-2.8s.2-1.5.6-2.1c.4-.6.9-1.1,1.6-1.4M113.4,33.1c-.7.3-1.4.5-2.1.5-1.2,0-2.2-.4-3-1.2-.9-.8-1.3-2-1.3-3.5s.4-2.7,1.3-3.5c.9-.8,1.9-1.2,3-1.2s1.4.2,2.1.5c.7.3,1.2.9,1.6,1.6.4.7.6,1.6.6,2.6s-.2,1.9-.6,2.6c-.4.7-1,1.2-1.6,1.6M111.3,22.3c-1.4,0-2.6.3-3.8.9-1.1.6-2,1.4-2.7,2.4-.6,1-1,2.1-1,3.3s.2,2.1.7,2.9c.5.8,1.1,1.6,2,2.1l-2.5,3.4c-.3.4-.3,1-.1,1.4.2.5.7.7,1.2.7h.7c-.7.5-1.2,1-1.6,1.7-.5.7-.7,1.5-.7,2.3,0,1.5.7,2.7,2,3.6,1.3.9,3.1,1.4,5.4,1.4s3.1-.3,4.5-.8c1.4-.5,2.5-1.2,3.3-2.2.8-1,1.3-2.1,1.3-3.5s-.5-2.4-1.7-3.4c-1-.8-2.7-1.2-4.7-1.2h-6.9s0,0,0,0c0,0,0,0,0,0l1.8-2.4c.5.2.9.4,1.3.4.4,0,.9.1,1.4.1,1.5,0,2.8-.3,3.9-.9,1.1-.6,2.1-1.4,2.7-2.4.7-1,1-2.1,1-3.3s-.6-3.6-2.3-4.8c0,0,0,0,0,0l3.7.4v-1.7h-6c-.9-.3-1.9-.5-2.9-.5" />
  <path class="st0" d="M188.3,37.3c.1,0,.3,0,.3-.1,0,0,.1-.2.1-.3s0-.2-.1-.3c0,0-.2-.1-.3-.1h0s0,0,0,0c0,0,0,0,0,0v.8h.1ZM187.5,38.4v-.2h0s.1,0,.1,0c0,0,0,0,0,0,0,0,0,0,0,0v-1.6s0,0,0,0c0,0,0,0,0,0h-.1v-.2h0s.9,0,.9,0c.3,0,.4,0,.6.2.2.1.2.3.2.5s0,.3-.2.4c-.1.1-.3.2-.4.2h.2c0,0,.4.7.4.7,0,0,0,0,.1,0h.1v.2h0s-.5,0-.5,0h0s-.5-.9-.5-.9h-.1v.6s0,0,0,0c0,0,0,0,0,0h.1v.2h0s-.9,0-.9,0h0ZM189.4,39c.3-.2.5-.4.7-.7.2-.3.2-.6.2-1s0-.7-.2-1c-.2-.3-.4-.5-.7-.7-.3-.2-.6-.2-1-.2s-.7,0-1,.2c-.3.2-.5.4-.7.7-.2.3-.2.6-.2,1s0,.7.2,1c.2.3.4.5.7.7.3.2.6.2,1,.2s.7,0,1-.2M187.2,39.2c-.3-.2-.6-.5-.8-.8-.2-.3-.3-.7-.3-1.1s.1-.8.3-1.1c.2-.3.5-.6.8-.8.3-.2.7-.3,1.1-.3s.8.1,1.1.3c.3.2.6.5.8.8.2.3.3.7.3,1.1s-.1.8-.3,1.1c-.2.3-.5.6-.8.8-.3.2-.7.3-1.1.3s-.8-.1-1.1-.3" />
</svg>