<svg xmlns="http://www.w3.org/2000/svg" id="Layer_1" version="1.1" viewBox="0.0 0.0 233.0 49.0" width="165" height="34">
  
  <defs>
    <style>
      .st0 {
        fill: #fff;
      }
    </style>
  </defs>
  <path class="st0" d="M11.5,22.7c.3-1.7.2-3.2.1-4,0-.2,0-.4,0-.5,0,0,0,0,0,0,0-.2-.1-4.6,2.7-7.5.1-.1.3-.3.5-.4-2.2-.6-7.5-1.7-10.4.5-1.5,1.2-2.2,3.1-2.1,5.8.1,2.1,2.9,13,6.1,14.2.7.2,1.3,0,2-.7,1.3-1.3,2.4-2.4,3-2.9-.3-.2-.5-.4-.7-.6-1-1.1-1.4-2.5-1.2-3.9" />
  <path class="st0" d="M18.7,28.7c-.3-.1-.6-.2-1,.2h0c-.3.2-.4.4-.6.6-.7.8-1,1-3.1,1.4-.3,0-.6.1-.7.2.2,0,.4.2.7.2,1.6.3,3.7.4,5.2-1.4.1-.1.1-.3,0-.5,0-.3-.3-.6-.6-.7" />
  <path class="st0" d="M32.8,16.6c0,0,0,.2,0,.3,0,.7,0,1.3-.2,1.9,0,.5-.2.9-.2,1.5,0,.5,0,1.1.1,1.7.2,1.4.4,3.1-.7,4.7,0,0,0,0,0,0,0,0,.1.1.2.2,4.6-6,6.2-13,4.7-14.6-3.3-3.6-8.5-3.3-11.1-2.9,4.9,1.9,7,6.2,7.1,7.3" />
  <path class="st0" d="M35.9,30.5c-.9.3-2.4.6-3.7.6s-1.2,0-1.6-.2c-.2,1.6-.7,4.7-.9,5.9-.5,2.4-1.7,3.5-4.6,4-.5,0-.9.1-1.3.1-2.7,0-3.6-1.8-3.9-2.6-.4-.9-.6-4-.6-7.1-1,.8-2.3,1.2-3.7,1.2s-1.2,0-1.8-.2c-.3,0-1.8-.4-1.7-1.3,0-.7,1-1,1.8-1.2,1.8-.3,1.9-.5,2.5-1,0-.1.2-.2.3-.4-.8,0-1.6-.2-2.3-.5-.4.4-1.8,1.6-3.2,3.1-.8.8-1.6,1.1-2.2,1.1s-.6,0-.9-.2c-3.9-1.5-6.7-13-6.8-15.1-.2-3.1.6-5.3,2.5-6.7,3.9-2.9,10.9-.9,12.2-.5,1.4-.8,3-1.2,4.9-1.2,1,0,2,.1,2.9.3,0,0,0,0,.1,0h0s0,0,.1,0c1.6-.4,9-2.2,13.7,2.8,2.1,2.3-.4,10.3-4.9,16.2.4.2,1.5.5,4.1,0,.4,0,1.4-.2,1.6.5.3,1.1-2.3,2.2-2.6,2.3M39.5,28c-.1-.5-.7-1.6-2.8-1.3-.9.2-1.6.2-2.1.2,4.6-6.7,5.9-13.8,3.7-16.1-4.7-5.1-12.4-3.9-14.6-3.2-.9-.1-1.9-.2-2.9-.2-1.9,0-3.6.3-5.1,1.1-2.2-.6-8.7-2.2-12.6.7C1,10.8,0,13.4.2,16.8c0,1.1,2.5,14.2,7.5,16.1.8.3,2.2.5,3.7-.7.4.5,1.2.9,2.2,1.2,1.8.4,3.5.3,4.9-.3,0,.2,0,.4,0,.5,0,.3,0,.6,0,.8,0,1.8.2,3.2.7,4.2,0,0,0,.1,0,.2.3.8,1.2,3.1,4.3,3.1s.9,0,1.4-.1c3.8-.7,6.1-2.4,6.3-9.3v-.3s0,0,0-.1h.5c1.5,0,3.3-.2,4.5-.6,1.1-.5,3.8-1.7,3.2-3.6" />
  <path class="st0" d="M31.1,27.3c-.4-.4-.9-.9-1.3-1.7,0-.1-.3-.4-.5-.7-1.2-1.9-3.5-5.4-2.2-7.4.7-1.1,2.1-1.5,4.5-1.3-.7-1.7-3.7-6.6-10.8-6.7-2.4,0-4.3.7-5.7,2.1-1.7,1.8-2.2,4.3-2.4,5.7.9-.5,2.2-.8,2.9-.9,2-.2,3.4.5,3.8,2.1,1,4.1,0,5.9-.6,7.2-.1.2-.2.5-.3.7v.2c-.3.4-.4.8-.6,1.2.5-.1.9,0,1.1.1.6.2,1.1.8,1.3,1.4,0,0,0,0,0,.1,0,0,0,.1,0,.2-.1,4.4.1,7.8.4,8.4.4.8,1.1,2.4,4.1,1.9,2.7-.5,3.4-1.4,3.7-3.2.3-1.5.9-5.8,1-6.7,0-1.8,1-2.2,1.6-2.4,0,0-.1-.2-.2-.2" />
  <path class="st0" d="M31.9,28.5c0,0-.2,0-.3,0-.5.1-1,.2-1,1.3.5.3,3.3.3,4.8-.3.7-.3,1.2-.5,1.5-.8-3.1.5-4.4.2-5-.3" />
  <path class="st0" d="M158.9,23.6c-.8-.8-1.7-1.4-2.9-1.7-1.1-.4-2.5-.6-4-.6-2.9,0-5.1.7-6.7,2-1.6,1.3-2.4,3.1-2.4,5.4s.8,4.1,2.3,5.5c1.6,1.5,4,2.2,7,2.2s2.3-.1,3.3-.4c1-.3,1.9-.7,2.7-1.1,1.3-1,2.2-2.1,2.5-3.5h-2.4c-.8,2.4-2.9,3.6-6.1,3.6s-4.1-.6-5.3-1.8c-1.1-1-1.6-2.3-1.6-4h15.8c0-2.4-.7-4.3-2.1-5.7h0ZM145.2,28c.3-1.6.9-2.9,1.9-3.7.6-.5,1.4-.9,2.2-1.2s1.7-.4,2.7-.4c2,0,3.6.5,4.8,1.6,1.3,1.1,1.9,2.3,1.9,3.7h-13.5M143.2,23.2c-.7-.1-1.3-.2-1.9-.2-3.6,0-5.5,2-5.5,6v6.9h-2.2v-14.2s2.2,0,2.2,0v2.5h.1c.4-1,1-1.8,1.8-2.3.9-.5,2.2-.7,3.9-.7h1.5v1.9h0ZM131.2,21.8h-2.2v2.4c-1-1-1.7-1.6-2.1-1.9-1.2-.7-2.8-1-4.8-1-2.9,0-5.1.7-6.6,2-1.4,1.2-2.2,3-2.2,5.3s.2,2.1.5,3c.4.9.9,1.6,1.6,2.3,1.5,1.3,3.7,1.9,6.4,1.9s5.7-.9,7.1-2.7v2.5c0,1.6-.5,2.9-1.5,3.7-1,.9-2.7,1.3-5,1.3s-3.7-.3-4.7-.9c-.7-.5-1.2-1.3-1.4-2.4h-2.3c.2,1.6.9,2.7,2,3.5,1.3.8,3.4,1.2,6.4,1.2,5.8,0,8.7-2.2,8.7-6.4v-13.7h0ZM127.3,32.8c-.6.5-1.3.9-2.1,1.1-.8.3-1.7.4-2.7.4-4.6,0-6.9-1.9-6.9-5.7s.6-3.2,1.8-4.2c1.2-1,2.9-1.5,5-1.5s3.8.5,4.9,1.5c1.1,1,1.7,2.4,1.7,4.1s-.6,3.3-1.7,4.3M112,36.1h-1c0,.1-.6.2-.6.2-1.6,0-2.7-.2-3.4-.7-.7-.5-1-1.3-1-2.4v-9.9h-2.9v-1.5h2.9v-4.7h2.2v4.7h3.9v1.5h-3.9s0,9.6,0,9.6c0,.7.2,1.2.6,1.5.4.3,1.1.4,2,.4.1,0,.3,0,.5,0,.3,0,.5-.1.8-.2v1.5s0,0,0,0ZM102.4,32.1c0,2.9-2.6,4.4-7.8,4.4s-2.9-.1-4-.3c-1.1-.2-2-.5-2.7-1-.5-.4-1-.8-1.3-1.4-.3-.6-.5-1.3-.6-2.2h2.4c0,1.1.4,2,1.3,2.5.9.7,2.5,1,4.8,1,3.6,0,5.5-.9,5.5-2.7s-.6-1.8-1.8-2.2c-.2,0-1.7-.3-4.4-.6-2.7-.3-4.4-.6-5.1-.9-1.4-.6-2.2-1.6-2.2-3.1s.6-2.5,1.9-3.3c.6-.3,1.4-.5,2.4-.7,1-.2,2.1-.2,3.3-.2,5,0,7.5,1.6,7.5,4.7h-2.3c0-2.2-1.8-3.3-5.3-3.3s-3.1.2-4,.7c-.9.4-1.3,1.1-1.3,2.1s.6,1.5,1.8,1.9c.7.2,2.3.4,4.8.7,2.2.2,3.8.5,4.6.9,1.6.6,2.4,1.7,2.4,3.2h0ZM82.8,23.5c-1.6-1.4-3.9-2.2-7-2.2s-5.2.7-6.8,2.2c-1.4,1.3-2.2,3.1-2.2,5.4s.7,4.1,2.2,5.4c.8.7,1.8,1.3,2.9,1.6,1.1.3,2.4.5,3.8.5,3.1,0,5.4-.7,7-2.1,1.4-1.3,2.2-3.1,2.2-5.4s-.7-4.1-2.2-5.4h0ZM82.3,31.5c-.2.7-.7,1.3-1.2,1.8-1.2,1.1-2.9,1.7-5.3,1.7s-3.8-.5-5-1.7c-1.2-1.1-1.7-2.6-1.7-4.4s.2-1.8.5-2.6c.3-.7.7-1.4,1.3-1.9,1.2-1.1,2.8-1.6,4.9-1.6,4.6,0,7,2,7,6.1s-.1,1.8-.4,2.5M65.5,16c-1.2-1.1-3-1.7-5.2-1.7h-12.9v21.7h2.6v-9.2s9.6,0,9.6,0c2.4,0,4.3-.6,5.7-1.7,1.4-1.1,2.1-2.6,2.1-4.6s-.6-3.5-1.8-4.6h0ZM59,25.1h-9v-9h9.5c3.5,0,5.2,1.5,5.2,4.6s-1.9,4.5-5.7,4.5" />
  <path class="st0" d="M232.8,36h-18.7V14.3h2.6s0,19.9,0,19.9h16.2v1.8s0,0,0,0ZM208.1,33.8c1.4-1,2.5-2.2,3.2-3.7.7-1.4,1-3.1,1-5,0-3.4-1.1-6-3.3-8.1-1.2-1.1-2.6-1.9-4.3-2.5-1.7-.5-3.6-.8-5.8-.8-4.2,0-7.5,1-9.9,3.1s-3.6,4.8-3.6,8.3,1.2,6.2,3.6,8.2c2.4,2.1,5.7,3.1,9.9,3.1s3.1-.1,4.3-.3c1.2-.2,2.3-.6,3.1-1l4,2.8,1.7-1.6-3.9-2.7h0ZM206.7,32.4c-1,.8-2.2,1.4-3.5,1.8-1.3.4-2.7.6-4.3.6-3.3,0-5.9-.9-7.9-2.6-2-1.8-3-4.1-3-7s1-5.4,3-7.1c2-1.7,4.6-2.6,7.9-2.6s6,.9,7.9,2.7c1,.9,1.8,1.9,2.2,3,.5,1.2.7,2.5.7,4,0,3-1,5.4-3,7.2M184.4,30.2c0,4.2-3.4,6.3-10.2,6.3s-7.1-.7-8.9-2.2c-1.5-1.2-2.3-3-2.3-5.5h2.7c0,3.9,2.8,5.9,8.5,5.9s4.7-.4,5.9-1.2c1-.7,1.5-1.8,1.5-3.3s-.7-2.6-2.1-3.2c-.8-.3-2.7-.7-5.8-1.2-3.9-.6-6.4-1.2-7.5-1.8-1.7-.9-2.5-2.3-2.5-4.4s.7-3.4,2.1-4.3c1.5-1,4.1-1.6,7.8-1.6,6.7,0,10,2.2,10,6.6h-2.8c0-3.3-2.5-5-7.4-5s-4.3.3-5.4,1c-1.1.7-1.6,1.8-1.6,3.1s.7,2.5,2.1,3c.7.3,2.9.8,6.6,1.4,3.4.5,5.7,1.1,6.9,1.8,1.6.8,2.4,2.3,2.4,4.3h0Z" />
  <path class="st0" d="M16.8,19s0,0-.1,0c-.4,0-.7-.3-.9-.5,0-.1-.1-.2-.1-.3,0-.3.6-.4,1.1-.3.3,0,.8.2.9.4,0,0,0,.2,0,.2,0,.3-.5.6-1,.6M18.4,18.6c-.2-.7-.6-1-1.2-1.2-1.6-.4-3.9.6-4.5,1,0,0,0,.1,0,.2,0,.8.2,2.4-.1,4.2-.2,1.1.2,2.2.9,3,.8.9,2,1.4,3.3,1.4.1-.4.3-.9.5-1.4v-.2c.2-.2.3-.5.5-.8.6-1.2,1.5-2.7.5-6.4" />
  <path class="st0" d="M30.5,18.1c-.1.2-.4.4-.8.5,0,0,0,0-.1,0-.5,0-.9-.3-.9-.5,0,0,0,0,0-.2.1-.2.5-.3.9-.3.4,0,1,0,1,.2h0c0,.1,0,.2-.1.3M31.3,20.1c0-.6.1-1.1.2-1.6,0-.4.2-.9.2-1.3-2-.2-3.3,0-3.7.8-.9,1.5,1.3,4.8,2.2,6.3.3.4.4.7.5.9.1.2.2.4.4.6.7-1.2.6-2.4.4-3.7,0-.6-.2-1.2-.2-1.8" />
</svg>