<svg xmlns="http://www.w3.org/2000/svg" id="Layer_1" version="1.1" viewBox="0.0 0.0 198.0 49.0" width="198.0" height="49.0">
  
  <defs>
    <style>
      .st0 {
        fill: #fff;
      }
    </style>
  </defs>
  <path class="st0" d="M52.6,44.9v-.9h-1.1c-.9,0-1.4.3-1.4.8v.2c0,.5.4.8,1.1.8s1.4-.4,1.4-1M53.6,46.4c-.6,0-.9-.4-.9-.9h0c-.2.7-.8,1-1.6,1-1.1,0-1.8-.6-1.8-1.6s.7-1.6,2.3-1.6h1.1v-.5c0-.8-.4-1.2-1.3-1.2s-1.1.3-1.4.8l-.5-.5c.3-.6.9-1.1,1.9-1.1s2.1.7,2.1,1.8v3h.6v.7h-.5Z" />
  <path class="st0" d="M55.3,46.4v-5.4h.8v.9h0c.3-.6.7-1,1.5-1s1.8.8,1.8,2.1v3.5h-.8v-3.3c0-1-.4-1.4-1.2-1.4s-1.3.3-1.3,1v3.7h-.8Z" />
  <polygon class="st0" points="63.1 46.4 63.1 45.7 64.2 45.7 64.2 39.9 63.1 39.9 63.1 39.1 66.1 39.1 66.1 39.9 65 39.9 65 45.7 66.1 45.7 66.1 46.4 63.1 46.4" />
  <path class="st0" d="M68.6,45.6h2.2c.8,0,1.2-.4,1.2-1.1v-.4c0-.7-.5-1.1-1.2-1.1h-2.2v2.6ZM68.6,42.3h2c.7,0,1.1-.4,1.1-1v-.4c0-.6-.4-1-1.1-1h-2v2.4ZM67.7,39.1h3c1.2,0,1.9.7,1.9,1.9s-.7,1.5-1.2,1.5h0c.5,0,1.4.5,1.4,1.8s-.8,2.1-1.9,2.1h-3.3v-7.3Z" />
  <polygon class="st0" points="74.6 39.1 75.7 39.1 77.8 43.1 77.9 43.1 80 39.1 81.1 39.1 81.1 46.4 80.2 46.4 80.2 40.3 80.2 40.3 79.6 41.5 77.8 44.7 76.1 41.5 75.5 40.3 75.4 40.3 75.4 46.4 74.6 46.4 74.6 39.1" />
  <path class="st0" d="M84.8,42.8c0-2.4,1.1-3.8,2.9-3.8s2,.6,2.5,1.6l-.7.4c-.3-.8-.9-1.2-1.8-1.2s-2,1-2,2.5v1.1c0,1.5.7,2.4,2,2.4s1.6-.5,1.9-1.3l.7.4c-.5,1-1.3,1.7-2.6,1.7-1.8,0-2.9-1.3-2.9-3.7" />
  <path class="st0" d="M95.2,44.1v-.8c0-1.1-.6-1.7-1.5-1.7s-1.5.6-1.5,1.7v.8c0,1.1.6,1.7,1.5,1.7s1.5-.6,1.5-1.7M91.2,43.7c0-1.7,1-2.8,2.4-2.8s2.4,1.1,2.4,2.8-1,2.8-2.4,2.8-2.4-1.1-2.4-2.8" />
  <path class="st0" d="M97.5,46.4v-5.4h.8v.9h0c.2-.6.6-1,1.4-1s1.4.3,1.6,1.1h0c.2-.6.7-1.1,1.6-1.1s1.8.8,1.8,2.1v3.5h-.8v-3.3c0-.9-.4-1.4-1.2-1.4s-1.3.3-1.3,1v3.7h-.8v-3.3c0-1-.4-1.4-1.2-1.4s-1.3.3-1.3,1v3.7h-.8Z" />
  <path class="st0" d="M110.4,44.2v-.9c0-1-.6-1.6-1.5-1.6s-1.4.4-1.4,1v2c0,.7.6,1.1,1.4,1.1s1.5-.6,1.5-1.6M106.7,41h.8v.9h0c.3-.7.8-1,1.6-1,1.3,0,2.2,1.1,2.2,2.8s-.8,2.8-2.2,2.8-1.3-.3-1.6-1h0v3h-.8v-7.5Z" />
  <path class="st0" d="M115.7,44.9v-.9h-1.1c-.9,0-1.4.3-1.4.8v.2c0,.5.4.8,1.1.8s1.4-.4,1.4-1M116.7,46.4c-.6,0-.9-.4-.9-.9h0c-.2.7-.8,1-1.6,1-1.1,0-1.8-.6-1.8-1.6s.7-1.6,2.3-1.6h1.1v-.5c0-.8-.4-1.2-1.3-1.2s-1.1.3-1.4.8l-.5-.5c.3-.6.9-1.1,1.9-1.1s2.1.7,2.1,1.8v3h.6v.7h-.5Z" />
  <path class="st0" d="M118.4,46.4v-5.4h.8v.9h0c.3-.6.7-1,1.5-1s1.8.8,1.8,2.1v3.5h-.8v-3.3c0-1-.4-1.4-1.2-1.4s-1.3.3-1.3,1v3.7h-.8Z" />
  <path class="st0" d="M127.6,41h.8l-2.4,6.6c-.2.6-.5.8-1.3.8h-.4v-.7h.8l.4-1.1-2-5.6h.8l1.3,3.7.2.9h0l.3-.9,1.3-3.7Z" />
  <polygon class="st0" points="49.4 10 53.5 10 53.5 18.9 63.1 18.9 63.1 10 67.2 10 67.2 31.9 63.1 31.9 63.1 22.7 53.5 22.7 53.5 31.9 49.4 31.9 49.4 10" />
  <path class="st0" d="M76.2,29.2c2.1,0,3.5-1.5,3.5-3.9v-1.2l-3.4.8c-1.7.4-2.4,1-2.4,2.3s.9,2,2.3,2M69.9,27.6c0-3.3,2.3-4.4,5.1-5l4.7-1.1v-.4c0-1.6-1-2.6-2.7-2.6s-2.6.9-2.9,2.4l-3.6-.4c.5-3,3.1-4.9,6.6-4.9s6.6,2.5,6.6,6.1v6.4c0,.4.1.5.4.5h.9v3.2h-2.4c-1.5,0-2.2-.5-2.2-1.7s0-.8.2-1.4h-.3c-1.1,2.3-2.8,3.4-5.1,3.4s-5.3-1.8-5.3-4.5" />
  <path class="st0" d="M86.5,27.6l3.8-.7c.4,1.7,1.7,2.5,3.5,2.5s2.8-.7,2.8-1.9-1.2-1.5-3.4-1.9c-2.8-.4-6.5-1-6.5-4.9s2.5-5,6.6-5,6.5,1.5,7.1,4.6l-3.8.6c-.3-1.6-1.6-2.4-3.3-2.4s-2.7.8-2.7,1.8,1.2,1.5,3.5,1.9c2.8.4,6.5,1,6.5,4.9s-2.5,5.1-6.7,5.1-6.6-1.6-7.3-4.7" />
  <path class="st0" d="M107.1,31.9h-4.1V9.4h4.1v7c0,.8-.2,1.6-.4,2.7h.4c1-2.2,2.4-3.5,5.2-3.5s5.3,2.2,5.3,5.9v10.4h-4.1v-10.2c0-1.8-.9-2.8-2.7-2.8s-3.7,1.6-3.7,4.3v8.7Z" />
  <path class="st0" d="M121.2,11.7c0-1.4,1.1-2.5,2.5-2.5s2.5,1.1,2.5,2.5-1.1,2.5-2.5,2.5-2.5-1.1-2.5-2.5M125.9,27.8c0,.6.2.8.7.8h1.8v3.2h-3.7c-1.8,0-2.8-1-2.8-2.9v-9.7h-2.2v-3.2h6.3v11.9Z" />
  <path class="st0" d="M129.7,21c0-6.6,4.3-11.3,10.5-11.3s8.8,3,9.8,7.1l-4.1,1c-.8-2.9-2.7-4.5-5.7-4.5s-6.2,3.2-6.2,7.6,2.5,7.6,6.4,7.6,4.9-1.7,5.7-4.7l3.9.4c-.9,4.9-4.6,7.9-9.7,7.9s-10.6-4.7-10.6-11.3h0Z" />
  <path class="st0" d="M163.8,23.9c0-3-1.6-5-4.1-5s-4.1,2-4.1,5,1.6,5,4.1,5,4.1-2,4.1-5M151.7,23.9c0-4.8,3.4-8.3,8.1-8.3s8.1,3.5,8.1,8.3-3.4,8.3-8.1,8.3-8.1-3.5-8.1-8.3" />
  <path class="st0" d="M170.4,16h3.7v.6c0,.8,0,1.5-.3,2.8h.4c.6-2,1.7-3.4,4.2-3.4h1.2v3.9h-1.7c-2.3,0-3.5,1.4-3.5,3.9v8h-4.1v-15.9Z" />
  <path class="st0" d="M193.7,23.9c0-3.1-1.7-5-4.1-5s-4.1,1.9-4.1,5,1.7,5,4.1,5,4.1-1.9,4.1-5M181.6,16h4v.7c0,.7,0,1.3-.3,2.6h.4c1-2.4,2.8-3.7,5.1-3.7,3.9,0,6.9,3.2,6.9,8.3s-3.1,8.3-6.9,8.3-4.1-1.2-5.1-3.8h-.3c.2,1.4.2,2,.2,2.7v7.1h-4.1V16h0Z" />
  <polygon class="st0" points="16.4 .5 .3 9.8 .3 9.8 .3 32.2 6.4 35.7 6.4 13.3 16.4 7.5 16.4 .5" />
  <polygon class="st0" points="22.9 .5 22.9 18.3 16.4 18.3 16.4 11.7 10.4 15.2 10.4 38.1 16.4 41.6 16.4 23.8 22.9 23.8 22.9 30.4 29 26.9 29 4 22.9 .5" />
  <polygon class="st0" points="22.9 41.6 39.1 32.2 39.1 32.2 39.1 9.8 33 6.3 33 28.7 22.9 34.6 22.9 41.6" />
</svg>