<svg xmlns="http://www.w3.org/2000/svg" id="Layer_1" version="1.1" viewBox="0.0 0.0 211.0 55.0" width="211.0" height="55.0">
  
  <defs>
    <style>
      .st0 {
        fill: none;
      }

      .st1 {
        fill: #2a5773;
      }

      .st2 {
        fill: #fff;
      }

      .st3 {
        fill: #fcb52b;
      }

      .st4 {
        fill: #8dc640;
      }

      .st5 {
        fill: #b64f9d;
      }

      .st6 {
        clip-path: url(#clippath);
      }
    </style>
    <clipPath id="clippath">
      <rect class="st0" x="0" y=".5" width="211" height="54" />
    </clipPath>
  </defs>
  <path class="st1" d="M45,34.8c0-5.8,4-10.5,9.9-10.5s9.6,4.2,9.6,9.9v1.5h-17c.4,4.1,3.6,7.1,7.8,7.1s5.2-1,6.7-3.6l2,1.1c-1.8,3.3-5,5-8.6,5-5.9,0-10.3-4.5-10.3-10.5h0ZM62,33.7c0-4.2-3-6.9-7.1-6.9s-6.9,3-7.3,6.9h14.3Z" />
  <path class="st1" d="M67.6,34.8c0-5.7,4.7-10.4,10.5-10.4s10.5,4.7,10.5,10.4-4.6,10.5-10.5,10.5-10.5-4.7-10.5-10.5h0ZM86.1,34.8c0-4.4-3.5-8-7.9-8s-8,3.6-8,8,3.5,8,8,8,7.9-3.6,7.9-8h0Z" />
  <path class="st1" d="M95.3,34.8v10h-2.6v-10.3c0-5.8,3.5-10.3,9.6-10.3s9.8,4.4,9.8,10.2v10.3h-2.6v-10c0-4.3-2.5-8.1-7.2-8.1s-7,3.8-7,8h0Z" />
  <path class="st1" d="M133.3,34.8v-10h2.6v10.3c0,5.8-3.6,10.2-9.5,10.2s-9.3-4.5-9.3-10.3v-10.2h2.6v10c0,4.3,2.4,8,6.8,8s6.9-3.8,6.9-8.1h0Z" />
  <g class="st6">
    <path class="st1" d="M174.5,34.3v10.6h-2.6v-10.2c0-4.2-2.2-7.9-6.5-7.9s-6.4,3.5-6.4,7.7v10.4h-2.6v-10.3c0-4.3-2.3-7.8-6.5-7.8s-6.4,3.7-6.4,7.9v10.3h-2.6v-10.5c0-5.6,3.2-10,8.8-10s7.2,2.4,8.1,6c.9-3.5,3.7-6,7.7-6s8.9,4.4,8.9,10h0Z" />
    <path class="st1" d="M179.3,49.6l2.2-1.2c1.4,2.5,4.1,3.7,6.9,3.7,5,0,7.4-3.8,7.4-8.7v-2.8c-1.2,2.8-3.7,4.6-7.2,4.6-5.9,0-8.9-4-8.9-9.8v-10.6h2.6v10.4c0,4.5,2.3,7.6,6.6,7.6s6.9-3.6,6.9-8v-9.9h2.6v18.6c0,6.5-3.4,11.1-9.9,11.1s-7.3-1.6-9.1-5h0Z" />
  </g>
  <path class="st3" d="M203.7,41.7c0-2,1.6-3.6,3.6-3.6s3.6,1.7,3.6,3.6-1.6,3.6-3.6,3.6-3.6-1.7-3.6-3.6h0Z" />
  <path class="st3" d="M35.2,53.1H.2V6.4C.2,3.2,2.8.6,6,.6h35v46.7c0,3.2-2.6,5.8-5.8,5.8h0Z" />
  <polygon class="st1" points="8.2 8.2 12 8.2 12 12.1 8.2 12.1 8.2 8.2 8.2 8.2" />
  <polygon class="st4" points="15.9 8.2 19.7 8.2 19.7 12.1 15.9 12.1 15.9 8.2 15.9 8.2" />
  <polygon class="st5" points="23.5 8.2 27.4 8.2 27.4 12.1 23.5 12.1 23.5 8.2 23.5 8.2" />
  <path class="st2" d="M8.2,44.9v-23.7c0-2.7,2-4.3,4.2-4.3s3.2.7,4.1,2.2l10.8,18.6v-20.2h5.6v23.7c0,2.7-2,4.3-4.2,4.3s-3.3-.6-4.2-2.1l-10.8-18.7v20.3h-5.7Z" />
</svg>