<svg xmlns="http://www.w3.org/2000/svg" id="Layer_1" version="1.1" viewBox="0.0 0.0 166.0 49.0" width="166.0" height="49.0">
  
  <defs>
    <style>
      .st0 {
        fill: #fff;
      }
    </style>
  </defs>
  <polygon class="st0" points="59 10.9 75.2 10.9 75.2 14.1 62.2 14.1 62.2 23.7 73.9 23.7 73.9 26.8 62.2 26.8 62.2 39 59 39 59 10.9" />
  <rect class="st0" x="78.6" y="10.9" width="3.3" height="28" />
  <path class="st0" d="M87.6,37.5c-1.3-1.4-1.9-3.4-1.9-5.9v-12.6h3.3v12c0,1.9.4,3.3,1.3,4.2.9.9,2,1.3,3.5,1.3,1.1,0,2.1-.3,3-.9.9-.6,1.6-1.4,2-2.3.5-.9.7-2,.7-3.1v-11.3h3.3v20h-3.2v-2.9h-.2c-.6,1.1-1.5,1.9-2.6,2.5-1.2.7-2.5,1-3.8,1-2.4,0-4.2-.7-5.5-2.1" />
  <path class="st0" d="M112.6,39.2c-.6-.2-1.2-.6-1.7-1.1-.5-.5-.9-1.1-1.2-1.8-.3-.8-.4-1.6-.4-2.4v-11.9h-3.5v-3h3.5v-5.6h3.3v5.6h4.9v3h-4.9v11.1c0,1.1.2,1.9.6,2.5.5.6,1.2.9,2.2.9.8,0,1.5-.2,2.2-.7v3.2c-.4.2-.8.3-1.2.4-.5,0-1,.1-1.5.1-.8,0-1.5-.1-2.2-.4" />
  <path class="st0" d="M126.3,39.2c-.6-.2-1.2-.6-1.7-1.1-.5-.5-.9-1.1-1.2-1.8-.3-.8-.4-1.6-.4-2.4v-11.9h-3.5v-3h3.5v-5.6h3.3v5.6h4.9v3h-4.9v11.1c0,1.1.2,1.9.6,2.5.5.6,1.2.9,2.2.9.8,0,1.5-.2,2.2-.7v3.2c-.4.2-.8.3-1.2.4-.5,0-1,.1-1.5.1-.8,0-1.5-.1-2.2-.4" />
  <path class="st0" d="M148.4,26.9c0-.9-.3-1.7-.7-2.5-.5-.9-1.1-1.6-2-2.1-1-.6-2.2-.9-3.4-.9-1.5,0-2.9.5-4,1.5-1.1,1.1-1.9,2.5-2.1,4h12.2ZM137.6,38.2c-1.5-.9-2.7-2.2-3.5-3.8-.9-1.7-1.3-3.5-1.3-5.4,0-1.8.4-3.7,1.2-5.3.8-1.6,1.9-2.9,3.4-3.9,1.5-1,3.3-1.5,5.1-1.4,1.8,0,3.5.4,5.1,1.3,1.4.9,2.6,2.1,3.3,3.6.8,1.6,1.2,3.5,1.2,5.3,0,.3,0,.7-.1,1h-15.8c0,1.4.4,2.7,1.1,3.8.6,1,1.5,1.8,2.5,2.3,1,.5,2.1.8,3.1.8,2.6,0,4.5-1.2,5.9-3.6l2.8,1.4c-.8,1.6-2,2.9-3.5,3.8-1.5.9-3.3,1.4-5.3,1.4-1.8,0-3.6-.5-5.1-1.4" />
  <path class="st0" d="M154.1,19h3.2v3.2h.2c.4-1.1,1.2-2.1,2.3-2.7,1-.7,2.3-1.1,3.5-1.1.8,0,1.6.1,2.3.4v3.6c-.9-.4-1.8-.6-2.8-.6-.9,0-1.9.3-2.7.8-.8.6-1.5,1.3-1.9,2.2-.5.9-.7,2-.7,3v11.2h-3.3v-20h0Z" />
  <path class="st0" d="M24.4,22.7l-12.9,12.9,7.4,7.4,5.5,5.5h14.8l-12.9-12.9,12.9-12.9h-14.8ZM24.4.5L.4,24.5l7.4,7.4L39.2.5h-14.8Z" />
  <path class="st0" d="M24.4,22.7l-12.9,12.9,7.4,7.4,5.5,5.5h14.8l-12.9-12.9,12.9-12.9h-14.8ZM24.4.5L.4,24.5l7.4,7.4L39.2.5h-14.8Z" />
  <path class="st0" d="M24.4,22.7l-12.9,12.9,7.4,7.4,5.5,5.5h14.8l-12.9-12.9,12.9-12.9h-14.8ZM24.4.5L.4,24.5l7.4,7.4L39.2.5h-14.8Z" />
  <path class="st0" d="M24.4,22.7l-12.9,12.9,7.4,7.4,5.5,5.5h14.8l-12.9-12.9,12.9-12.9h-14.8ZM24.4.5L.4,24.5l7.4,7.4L39.2.5h-14.8Z" />
  <path class="st0" d="M24.4,22.7l-12.9,12.9,7.4,7.4,5.5,5.5h14.8l-12.9-12.9,12.9-12.9h-14.8ZM24.4.5L.4,24.5l7.4,7.4L39.2.5h-14.8Z" />
  <path class="st0" d="M24.4,22.7l-12.9,12.9,7.4,7.4,5.5,5.5h14.8l-12.9-12.9,12.9-12.9h-14.8ZM24.4.5L.4,24.5l7.4,7.4L39.2.5h-14.8Z" />
  <path class="st0" d="M24.4,22.7l-12.9,12.9,7.4,7.4,5.5,5.5h14.8l-12.9-12.9,12.9-12.9h-14.8ZM24.4.5L.4,24.5l7.4,7.4L39.2.5h-14.8Z" />
  <path class="st0" d="M24.4,22.7l-12.9,12.9,7.4,7.4,5.5,5.5h14.8l-12.9-12.9,12.9-12.9h-14.8ZM24.4.5L.4,24.5l7.4,7.4L39.2.5h-14.8Z" />
  <path class="st0" d="M24.4,22.7l-12.9,12.9,7.4,7.4,5.5,5.5h14.8l-12.9-12.9,12.9-12.9h-14.8ZM24.4.5L.4,24.5l7.4,7.4L39.2.5h-14.8Z" />
  <path class="st0" d="M24.4,22.7l-12.9,12.9,7.4,7.4,5.5,5.5h14.8l-12.9-12.9,12.9-12.9h-14.8ZM24.4.5L.4,24.5l7.4,7.4L39.2.5h-14.8Z" />
  <polygon class="st0" points="24.4 22.7 11.5 35.6 18.9 43 24.4 48.5 39.2 48.5 26.3 35.6 39.2 22.7 24.4 22.7" />
  <polygon class="st0" points="24.4 .5 .4 24.5 7.8 31.9 39.2 .5 24.4 .5" />
</svg>